<svg width="100%" height="100%" viewBox="0 0 24 24" version="1.1" xmlns="http://www.w3.org/2000/svg">
    <g transform="matrix(1.09403,0,0,1.09403,-1.95366,-1.49579)">
        <path d="M16.523,15.446L16.523,13.894L18.03,13.894L18.03,15.446L16.523,15.446ZM15.037,7.684L13.53,7.684L13.53,6.131L15.037,6.131L15.037,7.684ZM12.001,6.121L12.001,3.016L13.508,3.016L13.508,1.474L15.015,1.474L15.015,3.027L13.508,3.027L13.508,6.121L12.001,6.121ZM19.559,7.673L18.051,7.673L18.051,6.121L19.559,6.121L19.559,7.673ZM4.464,13.883L4.464,12.33L5.971,12.33L5.971,13.883L4.464,13.883ZM21.044,12.33L21.044,10.778L19.559,10.778L19.559,7.673L21.066,7.673L21.066,9.236L22.552,9.236L22.552,12.33L21.044,12.33ZM18.03,13.894L18.03,10.789L16.544,10.789L16.544,9.236L18.051,9.236L18.051,10.789L19.537,10.789L19.537,12.33L21.044,12.33L21.044,13.883L19.537,13.883L19.537,13.894L18.03,13.894ZM10.493,7.673L10.493,6.121L12.001,6.121L12.001,7.673L10.493,7.673ZM16.544,9.236L15.037,9.236L15.037,7.684L16.544,7.684L16.544,9.236ZM5.971,18.54L7.479,18.54L7.479,20.093L5.971,20.093L5.971,18.54ZM8.986,21.645L10.493,21.645L10.493,20.093L12.001,20.093L12.001,18.54L13.508,18.54L13.508,16.998L15.015,16.998L15.015,18.551L13.508,18.551L13.508,21.645L12.001,21.645L12.001,23.197L8.986,23.197L8.986,21.645ZM7.479,20.093L8.986,20.093L8.986,21.645L7.479,21.645L7.479,20.093ZM4.464,16.988L5.971,16.988L5.971,18.54L4.464,18.54L4.464,16.988ZM2.957,16.988L2.957,13.883L4.464,13.883L4.464,16.988L2.957,16.988ZM15.015,16.998L15.015,15.446L16.523,15.446L16.523,16.998L15.015,16.998ZM7.479,10.778L7.479,9.226L8.986,9.226L8.986,10.778L7.479,10.778ZM8.986,9.226L8.986,7.673L10.493,7.673L10.493,9.226L8.986,9.226ZM5.971,12.33L5.971,10.778L7.479,10.778L7.479,12.33L5.971,12.33ZM18.051,6.121L16.544,6.121L16.544,4.579L15.037,4.579L15.037,3.027L16.544,3.027L16.544,4.568L18.051,4.568L18.051,6.121Z"/>
    </g>
</svg>
