<svg width="100%" height="100%" viewBox="0 0 24 24" version="1.1" xmlns="http://www.w3.org/2000/svg">
    <g transform="matrix(0.24631,0,0,0.24631,-0.315521,-0.315644)">
        <path d="M5,30.059L5.004,30.059L5.004,30.056L5,30.059ZM95,35.759L95,26.116L32.149,26.116L32.149,30.059L5.004,30.059C5.007,38.365 15.96,45.098 29.469,45.098C37.149,45.098 43.374,48.059 43.374,51.711L43.375,51.71C43.375,56.192 39.62,60.238 33.577,63.131C31.047,64.342 29.475,66.943 29.475,69.748L29.475,73.885L44.225,73.885C44.225,71.997 48.301,70.473 53.326,70.473C58.35,70.473 62.425,71.997 62.425,73.885L77.189,73.885L77.189,70.084C77.189,67.235 75.573,64.592 72.978,63.412C66.583,60.502 62.578,56.338 62.578,51.71C62.576,42.896 77.088,35.759 95,35.759Z" style="fill-rule:nonzero;"/>
    </g>
</svg>
