<svg width="100%" height="100%" viewBox="0 0 24 24" version="1.1" xmlns="http://www.w3.org/2000/svg">
    <g transform="matrix(1,0,0,1,-1.59722,1.59722)">
        <rect x="7.152" y="1.164" width="1.604" height="1.604"/>
    </g>
    <g transform="matrix(1,0,0,1,-5.05455,9.91132)">
        <rect x="7.152" y="1.164" width="1.604" height="1.604"/>
    </g>
    <g transform="matrix(1,0,0,1,0.00683548,13.3929)">
        <rect x="7.152" y="1.164" width="1.604" height="1.604"/>
    </g>
    <g transform="matrix(1,0,0,1,0.00683548,11.5154)">
        <rect x="7.152" y="1.164" width="1.604" height="1.604"/>
    </g>
    <g transform="matrix(1,0,0,2.17045,0.00683548,10.1535)">
        <rect x="7.152" y="1.164" width="1.604" height="1.604"/>
    </g>
    <g transform="matrix(1,0,0,2.17045,8.06496,10.1535)">
        <rect x="7.152" y="1.164" width="1.604" height="1.604"/>
    </g>
    <g transform="matrix(1.99756,0,0,1.01271,-3.86624,13.1047)">
        <rect x="7.152" y="1.164" width="1.604" height="1.604"/>
    </g>
    <g transform="matrix(1.99512,0,0,1.17045,-3.84878,16.1496)">
        <rect x="7.152" y="1.164" width="1.604" height="1.604"/>
    </g>
    <g transform="matrix(1,0,0,1,0.00683548,5.09914)">
        <rect x="7.152" y="1.164" width="1.604" height="1.604"/>
    </g>
    <g transform="matrix(1,0,0,1,8.06496,5.09914)">
        <rect x="7.152" y="1.164" width="1.604" height="1.604"/>
    </g>
    <g transform="matrix(1,0,0,1,-5.05455,13.1655)">
        <rect x="7.152" y="1.164" width="1.604" height="1.604"/>
    </g>
    <g transform="matrix(1,0,0,1,13.1798,9.91132)">
        <rect x="7.152" y="1.164" width="1.604" height="1.604"/>
    </g>
    <g transform="matrix(1,0,0,1,13.1798,13.1655)">
        <rect x="7.152" y="1.164" width="1.604" height="1.604"/>
    </g>
    <g transform="matrix(1.15536,0,0,9.36632,-4.56167,-6.53361)">
        <rect x="7.152" y="1.164" width="1.604" height="1.604"/>
    </g>
    <g transform="matrix(1.15536,0,0,9.36632,10.2154,-6.53361)">
        <rect x="7.152" y="1.164" width="1.604" height="1.604"/>
    </g>
    <g transform="matrix(1,0,0,1,1.61089,-0.00683548)">
        <rect x="7.152" y="1.164" width="1.604" height="1.604"/>
    </g>
    <g transform="matrix(1,0,0,1,1.61089,1.59722)">
        <rect x="7.152" y="1.164" width="1.604" height="1.604"/>
    </g>
    <g transform="matrix(1,0,0,1.17045,1.61089,3.00295)">
        <rect x="7.152" y="1.164" width="1.604" height="1.604"/>
    </g>
    <g transform="matrix(4.02358,0,0,1.17045,-20.0142,3.00295)">
        <rect x="7.152" y="1.164" width="1.604" height="1.604"/>
    </g>
    <g transform="matrix(4.02358,0,0,1.17045,-20.0142,19.6311)">
        <rect x="7.152" y="1.164" width="1.604" height="1.604"/>
    </g>
    <g transform="matrix(1,0,0,1,0.00683548,-0.00683548)">
        <rect x="7.152" y="1.164" width="1.604" height="1.604"/>
    </g>
    <g transform="matrix(1,0,0,1,-1.59722,18.2254)">
        <rect x="7.152" y="1.164" width="1.604" height="1.604"/>
    </g>
    <g transform="matrix(1,0,0,1,0.00683548,18.2254)">
        <rect x="7.152" y="1.164" width="1.604" height="1.604"/>
    </g>
    <g transform="matrix(1,0,0,1,8.06496,18.2254)">
        <rect x="7.152" y="1.164" width="1.604" height="1.604"/>
    </g>
    <g transform="matrix(1,0,0,1,9.66902,18.2254)">
        <rect x="7.152" y="1.164" width="1.604" height="1.604"/>
    </g>
    <g transform="matrix(-1,0,0,1,25.5852,1.59722)">
        <rect x="7.152" y="1.164" width="1.604" height="1.604"/>
    </g>
    <g transform="matrix(-1,0,0,1,22.3771,-0.00683548)">
        <rect x="7.152" y="1.164" width="1.604" height="1.604"/>
    </g>
    <g transform="matrix(-1,0,0,1,22.3771,1.59722)">
        <rect x="7.152" y="1.164" width="1.604" height="1.604"/>
    </g>
    <g transform="matrix(-1,0,0,1,23.9812,-0.00683548)">
        <rect x="7.152" y="1.164" width="1.604" height="1.604"/>
    </g>
</svg>
