<svg width="100%" height="100%" viewBox="0 0 24 24" version="1.1" xmlns="http://www.w3.org/2000/svg" xmlns:xlink="http://www.w3.org/1999/xlink">
    <g transform="matrix(0.230444,0,0,0.230444,0.499688,0.483556)">
        <path d="M72.09,13.86L53.18,24.8L72.11,35.72L91.02,24.78L72.09,13.86ZM49.87,1.05L30.95,11.99L49.88,22.9L68.8,11.97L49.87,1.05ZM27.67,13.89L8.75,24.82L27.68,35.74L46.59,24.81L27.67,13.89ZM49.89,26.7L30.97,37.64L49.9,48.55L68.82,37.62L49.89,26.7ZM7.11,27.67L7.12,49.53L26.05,60.44L26.04,38.59L7.11,27.67ZM29.33,40.49L29.34,62.34L48.27,73.26L48.26,51.41L29.33,40.49ZM7.12,53.32L7.13,75.17L26.06,86.08L26.05,64.23L7.12,53.32ZM29.34,66.14L29.35,87.99L48.28,98.9L48.27,77.05L29.34,66.14ZM51.57,98.9L70.49,87.97L70.48,66.12L51.56,77.05L51.57,98.9ZM73.78,86.06L92.7,75.13L92.68,53.28L73.77,64.21L73.78,86.06ZM73.76,60.41L92.68,49.48L92.67,27.63L73.75,38.56L73.76,60.41ZM51.55,51.4L51.56,73.25L70.47,62.32L70.46,40.47L51.55,51.4Z" style="fill-rule:nonzero;"/>
    </g>
</svg>
