<svg width="100%" height="100%" viewBox="0 0 24 24" version="1.1" xmlns="http://www.w3.org/2000/svg">
    <g transform="matrix(1.08629,0,0,1.08629,-0.836695,-1.11374)">
        <path d="M4.551,8.6L3.586,8.6C3.416,8.6 3.279,8.463 3.279,8.294L3.279,3.622C3.279,3.453 3.416,3.316 3.586,3.316L8.257,3.316C8.427,3.316 8.564,3.453 8.564,3.622L8.564,4.59L7.943,4.59C7.939,4.59 7.936,4.59 7.933,4.59C7.739,4.59 7.581,4.748 7.581,4.942C7.581,5.136 7.739,5.294 7.933,5.294C7.936,5.294 7.939,5.294 7.943,5.294L8.564,5.294L8.564,6.628L7.943,6.628C7.939,6.628 7.936,6.628 7.933,6.628C7.739,6.628 7.581,6.786 7.581,6.98C7.581,7.174 7.739,7.332 7.933,7.332C7.936,7.332 7.939,7.332 7.943,7.332L8.564,7.332L8.564,8.294C8.564,8.463 8.427,8.6 8.257,8.6L7.292,8.6L7.292,7.929C7.292,7.735 7.135,7.577 6.941,7.577C6.746,7.577 6.589,7.735 6.589,7.929L6.589,8.6L5.254,8.6L5.254,7.929C5.254,7.735 5.097,7.577 4.902,7.577C4.708,7.577 4.551,7.735 4.551,7.929L4.551,8.6ZM9.258,4.59L9.258,3.622C9.258,3.453 9.395,3.316 9.564,3.316L14.236,3.316C14.405,3.316 14.543,3.453 14.543,3.622L14.543,4.59L13.915,4.59C13.912,4.59 13.908,4.59 13.905,4.59C13.711,4.59 13.553,4.748 13.553,4.942C13.553,5.136 13.711,5.294 13.905,5.294C13.908,5.294 13.912,5.294 13.915,5.294L14.543,5.294L14.543,6.628L13.915,6.628C13.912,6.628 13.908,6.628 13.905,6.628C13.711,6.628 13.553,6.786 13.553,6.98C13.553,7.174 13.711,7.332 13.905,7.332C13.908,7.332 13.912,7.332 13.915,7.332L14.543,7.332L14.543,8.294C14.543,8.463 14.405,8.6 14.236,8.6L9.564,8.6C9.395,8.6 9.258,8.463 9.258,8.294L9.258,7.332L9.876,7.332C9.879,7.332 9.883,7.332 9.886,7.332C10.08,7.332 10.238,7.174 10.238,6.98C10.238,6.786 10.08,6.628 9.886,6.628C9.883,6.628 9.879,6.628 9.876,6.628L9.258,6.628L9.258,5.294L9.876,5.294C9.879,5.294 9.883,5.294 9.886,5.294C10.08,5.294 10.238,5.136 10.238,4.942C10.238,4.748 10.08,4.59 9.886,4.59C9.883,4.59 9.879,4.59 9.876,4.59L9.258,4.59ZM15.237,4.59L15.237,3.622C15.237,3.453 15.374,3.316 15.543,3.316L20.215,3.316C20.384,3.316 20.521,3.453 20.521,3.622L20.521,8.294C20.521,8.463 20.384,8.6 20.215,8.6L19.25,8.6L19.25,7.929C19.25,7.735 19.092,7.577 18.898,7.577C18.704,7.577 18.546,7.735 18.546,7.929L18.546,8.6L17.212,8.6L17.212,7.929C17.212,7.735 17.054,7.577 16.86,7.577C16.666,7.577 16.508,7.735 16.508,7.929L16.508,8.6L15.543,8.6C15.374,8.6 15.237,8.463 15.237,8.294L15.237,7.332L15.848,7.332C15.851,7.332 15.855,7.332 15.858,7.332C16.052,7.332 16.21,7.174 16.21,6.98C16.21,6.786 16.052,6.628 15.858,6.628C15.855,6.628 15.851,6.628 15.848,6.628L15.237,6.628L15.237,5.294L15.848,5.294C15.851,5.294 15.855,5.294 15.858,5.294C16.052,5.294 16.21,5.136 16.21,4.942C16.21,4.748 16.052,4.59 15.858,4.59C15.855,4.59 15.851,4.59 15.848,4.59L15.237,4.59ZM19.25,9.247L20.215,9.247C20.384,9.247 20.521,9.385 20.521,9.554L20.521,14.225C20.521,14.395 20.384,14.532 20.215,14.532L15.543,14.532C15.374,14.532 15.237,14.395 15.237,14.225L15.237,13.371L15.858,13.371C16.052,13.371 16.21,13.213 16.21,13.019C16.21,12.825 16.052,12.667 15.858,12.667L15.237,12.667L15.237,11.333L15.858,11.333C16.052,11.333 16.21,11.175 16.21,10.981C16.21,10.787 16.052,10.629 15.858,10.629L15.237,10.629L15.237,9.554C15.237,9.385 15.374,9.247 15.543,9.247L16.508,9.247L16.508,9.872C16.508,10.066 16.666,10.224 16.86,10.224C17.054,10.224 17.212,10.066 17.212,9.872L17.212,9.247L18.546,9.247L18.546,9.872C18.546,10.066 18.704,10.224 18.898,10.224C19.092,10.224 19.25,10.066 19.25,9.872L19.25,9.247ZM14.543,13.371L14.543,14.225C14.543,14.395 14.405,14.532 14.236,14.532L9.564,14.532C9.395,14.532 9.258,14.395 9.258,14.225L9.258,13.371L9.886,13.371C10.08,13.371 10.238,13.213 10.238,13.019C10.238,12.825 10.08,12.667 9.886,12.667L9.258,12.667L9.258,11.333L9.886,11.333C10.08,11.333 10.238,11.175 10.238,10.981C10.238,10.787 10.08,10.629 9.886,10.629L9.258,10.629L9.258,9.554C9.258,9.385 9.395,9.247 9.564,9.247L14.236,9.247C14.405,9.247 14.543,9.385 14.543,9.554L14.543,10.629L13.915,10.629C13.721,10.629 13.563,10.787 13.563,10.981C13.563,11.175 13.721,11.333 13.915,11.333L14.543,11.333L14.543,12.667L13.915,12.667C13.721,12.667 13.563,12.825 13.563,13.019C13.563,13.213 13.721,13.371 13.915,13.371L14.543,13.371ZM8.564,13.371L8.564,14.225C8.564,14.395 8.427,14.532 8.257,14.532L7.292,14.532L7.292,13.931C7.292,13.737 7.135,13.579 6.941,13.579C6.746,13.579 6.589,13.737 6.589,13.931L6.589,14.532L5.254,14.532L5.254,13.931C5.254,13.737 5.097,13.579 4.902,13.579C4.708,13.579 4.551,13.737 4.551,13.931L4.551,14.532L3.586,14.532C3.416,14.532 3.279,14.395 3.279,14.225L3.279,9.554C3.279,9.385 3.416,9.247 3.586,9.247L4.551,9.247L4.551,9.872C4.551,10.066 4.708,10.224 4.902,10.224C5.097,10.224 5.254,10.066 5.254,9.872L5.254,9.247L6.589,9.247L6.589,9.872C6.589,10.066 6.746,10.224 6.941,10.224C7.135,10.224 7.292,10.066 7.292,9.872L7.292,9.247L8.257,9.247C8.427,9.247 8.564,9.385 8.564,9.554L8.564,10.629L7.943,10.629C7.749,10.629 7.591,10.787 7.591,10.981C7.591,11.175 7.749,11.333 7.943,11.333L8.564,11.333L8.564,12.667L7.943,12.667C7.749,12.667 7.591,12.825 7.591,13.019C7.591,13.213 7.749,13.371 7.943,13.371L8.564,13.371ZM7.292,15.179L8.257,15.179C8.427,15.179 8.564,15.316 8.564,15.485L8.564,16.45L7.943,16.45C7.749,16.45 7.591,16.608 7.591,16.802C7.591,16.996 7.749,17.154 7.943,17.154L8.564,17.154L8.564,18.488L7.943,18.488C7.749,18.488 7.591,18.646 7.591,18.84C7.591,19.034 7.749,19.192 7.943,19.192L8.564,19.192L8.564,20.157C8.564,20.326 8.427,20.463 8.257,20.463L3.586,20.463C3.416,20.463 3.279,20.326 3.279,20.157L3.279,15.485C3.279,15.316 3.416,15.179 3.586,15.179L4.551,15.179L4.551,15.874C4.551,16.069 4.708,16.226 4.902,16.226C5.097,16.226 5.254,16.069 5.254,15.874L5.254,15.179L6.589,15.179L6.589,15.874C6.589,16.069 6.746,16.226 6.941,16.226C7.135,16.226 7.292,16.069 7.292,15.874L7.292,15.179ZM9.258,16.45L9.258,15.485C9.258,15.316 9.395,15.179 9.564,15.179L14.236,15.179C14.405,15.179 14.543,15.316 14.543,15.485L14.543,16.45L13.915,16.45C13.721,16.45 13.563,16.608 13.563,16.802C13.563,16.996 13.721,17.154 13.915,17.154L14.543,17.154L14.543,18.488L13.915,18.488C13.721,18.488 13.563,18.646 13.563,18.84C13.563,19.034 13.721,19.192 13.915,19.192L14.543,19.192L14.543,20.157C14.543,20.326 14.405,20.463 14.236,20.463L9.564,20.463C9.395,20.463 9.258,20.326 9.258,20.157L9.258,19.192L9.886,19.192C10.08,19.192 10.238,19.034 10.238,18.84C10.238,18.646 10.08,18.488 9.886,18.488L9.258,18.488L9.258,17.154L9.886,17.154C10.08,17.154 10.238,16.996 10.238,16.802C10.238,16.608 10.08,16.45 9.886,16.45L9.258,16.45ZM15.691,18.488L18.737,15.442C18.857,15.322 19.051,15.322 19.17,15.442L22.474,18.745C22.594,18.865 22.594,19.059 22.474,19.179L19.17,22.482C19.051,22.602 18.857,22.602 18.737,22.482L15.447,19.192L15.858,19.192C16.052,19.192 16.21,19.034 16.21,18.84C16.21,18.646 16.052,18.488 15.858,18.488L15.691,18.488Z"/>
    </g>
</svg>
