<svg width="100%" height="100%" viewBox="0 0 24 24" version="1.1" xmlns="http://www.w3.org/2000/svg">
    <g transform="matrix(0.318649,0,0,0.309698,-2.76173,-0.77963)">
        <path d="M67.307,61.972C64.964,59.321 61.213,56.29 55.834,55.333C49.553,54.216 45.167,58.666 35,58.666C24.833,58.666 19.667,51.833 8.667,56.666L8.667,43.166C8.667,43.166 28.417,47.541 25.667,35.666C25.667,35.666 33,31.832 42.5,35.666C42.5,35.666 38.579,45.87 56,42.833C68.452,40.662 74.839,50.085 77.625,56.229C79.928,55.821 81.766,56.182 82.51,57.389L83.643,59.23C85.001,61.435 82.192,65.632 77.376,68.598C72.56,71.564 67.547,72.182 66.19,69.978L65.056,68.137C64.144,66.656 65.112,64.275 67.307,61.972ZM25.667,34.666L25.667,28.915L28.979,24.79L38.729,24.79L42.5,28.978L42.5,34.666C33.021,30.728 25.667,34.666 25.667,34.666ZM42.292,13.041C42.292,13.041 55.25,7.833 55.25,15.083C55.25,22.333 42.292,17.291 42.292,17.291L38.73,17.291L38.73,23.791L28.98,23.791L28.98,17.416L25.167,17.416L25.167,17.322C24.121,17.716 12.291,22.013 12.291,15.083C12.291,7.833 25.249,13.041 25.249,13.041L42.292,13.041Z"/>
    </g>
</svg>
