<?xml version="1.0" encoding="UTF-8" standalone="no"?>
<!DOCTYPE svg PUBLIC "-//W3C//DTD SVG 1.1//EN" "http://www.w3.org/Graphics/SVG/1.1/DTD/svg11.dtd">
<svg width="100%" height="100%" viewBox="0 0 24 24" version="1.1" xmlns="http://www.w3.org/2000/svg" xmlns:xlink="http://www.w3.org/1999/xlink" xml:space="preserve" xmlns:serif="http://www.serif.com/" style="fill-rule:evenodd;clip-rule:evenodd;stroke-linejoin:round;stroke-miterlimit:2;">
    <g transform="matrix(0.756929,0,0,0.688675,2.90656,6.84915)">
        <path d="M2,15.813L0.14,15.813C-0.296,15.813 -1.322,14.954 -1.322,13.907L-1.322,10.1C-1.322,9.046 -0.55,8.187 0.068,8.187L2,8.187L2,7.016C2,4.254 4.254,2 7,2L16.984,2C19.746,2 22,4.254 22,7.016L22,8.187L24.389,8.187C25.007,8.187 25.719,9.046 25.719,10.1L25.719,13.907C25.719,14.954 24.826,15.813 24.39,15.813L22,15.813L22,16.984C22,19.746 19.746,22 16.984,22L7,22C4.254,22 2,19.746 2,17L2,15.813Z" style="fill:rgb(99,115,129);fill-opacity:0.4;"/>
    </g>
    <g transform="matrix(1,0,0,0.438296,-0.251459,4.79453)">
        <path d="M10.644,4.951C10.053,3.873 9.674,2.215 9.674,0.356C9.674,-2.889 10.829,-5.523 12.251,-5.523C13.674,-5.523 14.828,-2.889 14.828,0.356C14.828,2.215 14.45,3.873 13.859,4.951L13.859,7.83L10.644,7.83L10.644,4.951Z" style="fill:rgb(99,115,129);"/>
    </g>
    <g transform="matrix(0.623765,0,0,0.623765,1.84392,9.45891)">
        <circle cx="11.883" cy="5.573" r="2.577" style="fill:rgb(99,115,129);"/>
    </g>
    <g transform="matrix(0.623765,0,0,0.623765,7.33146,9.45891)">
        <circle cx="11.883" cy="5.573" r="2.577" style="fill:rgb(99,115,129);"/>
    </g>
    <g transform="matrix(0.817125,0,0,0.68957,1.991,5.68727)">
        <path d="M17.401,17.251L17.401,18.043C17.401,18.503 17.085,18.877 16.697,18.877L7.801,18.877C7.413,18.877 7.097,18.503 7.097,18.043L7.097,17.251C7.097,16.79 7.413,16.416 7.801,16.416L16.697,16.416C17.085,16.416 17.401,16.79 17.401,17.251Z" style="fill:rgb(99,115,129);"/>
    </g>
</svg>
