<?xml version="1.0" encoding="UTF-8" standalone="no"?>
<!DOCTYPE svg PUBLIC "-//W3C//DTD SVG 1.1//EN" "http://www.w3.org/Graphics/SVG/1.1/DTD/svg11.dtd">
<svg width="100%" height="100%" viewBox="0 0 24 24" version="1.1" xmlns="http://www.w3.org/2000/svg" xmlns:xlink="http://www.w3.org/1999/xlink" xml:space="preserve" xmlns:serif="http://www.serif.com/" style="fill-rule:evenodd;clip-rule:evenodd;stroke-linejoin:round;stroke-miterlimit:2;">
    <g opacity="0.4">
        <g transform="matrix(6.12323e-17,-1,1.57522,9.64543e-17,-13.1902,39)">
            <path d="M18.846,22.979C17.871,22.941 17.188,22.256 17.124,21.282C17.059,20.273 17,18.634 17,16C17,13.366 17.059,11.727 17.124,10.718C17.188,9.744 17.871,9.059 18.846,9.021C19.167,9.008 19.549,9 20,9C20.451,9 20.833,9.008 21.155,9.021C22.129,9.059 22.813,9.744 22.876,10.718C22.941,11.727 23,13.366 23,16C23,18.634 22.941,20.273 22.876,21.282C22.813,22.256 22.129,22.941 21.155,22.979C20.833,22.992 20.451,23 20,23C19.549,23 19.167,22.992 18.846,22.979Z" style="fill:rgb(99,115,129);fill-rule:nonzero;"/>
        </g>
        <g transform="matrix(6.12323e-17,-1,1.57522,9.64543e-17,-13.1902,32)">
            <path d="M18.846,22.979C17.871,22.941 17.188,22.256 17.124,21.282C17.059,20.273 17,18.634 17,16C17,13.366 17.059,11.727 17.124,10.718C17.188,9.744 17.871,9.059 18.846,9.021C19.167,9.008 19.549,9 20,9C20.451,9 20.833,9.008 21.155,9.021C22.129,9.059 22.813,9.744 22.876,10.718C22.941,11.727 23,13.366 23,16C23,18.634 22.941,20.273 22.876,21.282C22.813,22.256 22.129,22.941 21.155,22.979C20.833,22.992 20.451,23 20,23C19.549,23 19.167,22.992 18.846,22.979Z" style="fill:rgb(99,115,129);fill-rule:nonzero;"/>
        </g>
        <g transform="matrix(6.12323e-17,-1,1.57522,9.64543e-17,-13.1902,24.9894)">
            <path d="M18.846,22.979C17.871,22.941 17.188,22.256 17.124,21.282C17.059,20.273 17,18.634 17,16C17,13.366 17.059,11.727 17.124,10.718C17.188,9.744 17.871,9.059 18.846,9.021C19.167,9.008 19.549,9 20,9C20.451,9 20.833,9.008 21.155,9.021C22.129,9.059 22.813,9.744 22.876,10.718C22.941,11.727 23,13.366 23,16C23,18.634 22.941,20.273 22.876,21.282C22.813,22.256 22.129,22.941 21.155,22.979C20.833,22.992 20.451,23 20,23C19.549,23 19.167,22.992 18.846,22.979Z" style="fill:rgb(99,115,129);fill-rule:nonzero;"/>
        </g>
    </g>
    <g transform="matrix(1,0,0,1,-18.1481,-0.636605)">
        <path d="M22.667,6.991C21.931,6.991 21.333,6.393 21.333,5.657C21.333,4.921 21.931,4.324 22.667,4.324L28.815,4.324C29.551,4.324 30.148,4.921 30.148,5.657C30.148,6.393 29.551,6.991 28.815,6.991L22.667,6.991Z" style="fill:rgb(99,115,129);"/>
    </g>
    <g transform="matrix(1,0,0,1,-2.81874,-0.636605)">
        <circle cx="22.667" cy="5.657" r="1.333" style="fill:rgb(99,115,129);"/>
    </g>
    <g transform="matrix(1,0,0,1,-18.1481,6.34287)">
        <path d="M22.667,6.991C21.931,6.991 21.333,6.393 21.333,5.657C21.333,4.921 21.931,4.324 22.667,4.324L28.815,4.324C29.551,4.324 30.148,4.921 30.148,5.657C30.148,6.393 29.551,6.991 28.815,6.991L22.667,6.991Z" style="fill:rgb(99,115,129);"/>
    </g>
    <g transform="matrix(1,0,0,1,-2.81874,6.34287)">
        <circle cx="22.667" cy="5.657" r="1.333" style="fill:rgb(99,115,129);"/>
    </g>
    <g transform="matrix(1,0,0,1,-18.1481,13.3223)">
        <path d="M22.667,6.991C21.931,6.991 21.333,6.393 21.333,5.657C21.333,4.921 21.931,4.324 22.667,4.324L28.815,4.324C29.551,4.324 30.148,4.921 30.148,5.657C30.148,6.393 29.551,6.991 28.815,6.991L22.667,6.991Z" style="fill:rgb(99,115,129);"/>
    </g>
    <g transform="matrix(1,0,0,1,-2.81874,13.3223)">
        <circle cx="22.667" cy="5.657" r="1.333" style="fill:rgb(99,115,129);"/>
    </g>
</svg>
