<?xml version="1.0" encoding="UTF-8" standalone="no"?>
<!DOCTYPE svg PUBLIC "-//W3C//DTD SVG 1.1//EN" "http://www.w3.org/Graphics/SVG/1.1/DTD/svg11.dtd">
<svg width="100%" height="100%" viewBox="0 0 32 32" version="1.1" xmlns="http://www.w3.org/2000/svg" xmlns:xlink="http://www.w3.org/1999/xlink" xml:space="preserve" xmlns:serif="http://www.serif.com/" style="fill-rule:evenodd;clip-rule:evenodd;stroke-linejoin:round;stroke-miterlimit:2;">
    <g transform="matrix(2,0,0,2,4,4)">
        <path d="M0,2C0,0.895 0.895,0 2,0L10,0C11.105,0 12,0.895 12,2L12,10C12,11.105 11.105,12 10,12L2,12C0.895,12 0,11.105 0,10L0,2Z" style="fill:rgb(37,50,77);fill-rule:nonzero;"/>
    </g>
    <g transform="matrix(2,0,0,2,4,4)">
        <clipPath id="_clip1">
            <path d="M0,2C0,0.895 0.895,0 2,0L10,0C11.105,0 12,0.895 12,2L12,10C12,11.105 11.105,12 10,12L2,12C0.895,12 0,11.105 0,10L0,2Z"/>
        </clipPath>
        <g clip-path="url(#_clip1)">
            <path d="M2,1L10,1L10,-1L2,-1L2,1ZM11,2L11,10L13,10L13,2L11,2ZM10,11L2,11L2,13L10,13L10,11ZM1,10L1,2L-1,2L-1,10L1,10ZM2,11C1.448,11 1,10.552 1,10L-1,10C-1,11.657 0.343,13 2,13L2,11ZM11,10C11,10.552 10.552,11 10,11L10,13C11.657,13 13,11.657 13,10L11,10ZM10,1C10.552,1 11,1.448 11,2L13,2C13,0.343 11.657,-1 10,-1L10,1ZM2,-1C0.343,-1 -1,0.343 -1,2L1,2C1,1.448 1.448,1 2,1L2,-1Z" style="fill:rgb(84,138,247);fill-rule:nonzero;"/>
        </g>
    </g>
    <g transform="matrix(2,0,0,2,12,8)">
        <path d="M0,0.8C0,0.52 0,0.38 0.054,0.273C0.102,0.179 0.179,0.102 0.273,0.054C0.38,0 0.52,0 0.8,0L1.2,0C1.48,0 1.62,0 1.727,0.054C1.821,0.102 1.898,0.179 1.946,0.273C2,0.38 2,0.52 2,0.8L2,1.2C2,1.48 2,1.62 1.946,1.727C1.898,1.821 1.821,1.898 1.727,1.946C1.62,2 1.48,2 1.2,2L0.8,2C0.52,2 0.38,2 0.273,1.946C0.179,1.898 0.102,1.821 0.054,1.727C0,1.62 0,1.48 0,1.2L0,0.8Z" style="fill:rgb(84,138,247);fill-rule:nonzero;"/>
    </g>
    <g transform="matrix(2,0,0,2,12,16)">
        <path d="M0,0.8C0,0.52 0,0.38 0.054,0.273C0.102,0.179 0.179,0.102 0.273,0.054C0.38,0 0.52,0 0.8,0L1.2,0C1.48,0 1.62,0 1.727,0.054C1.821,0.102 1.898,0.179 1.946,0.273C2,0.38 2,0.52 2,0.8L2,1.2C2,1.48 2,1.62 1.946,1.727C1.898,1.821 1.821,1.898 1.727,1.946C1.62,2 1.48,2 1.2,2L0.8,2C0.52,2 0.38,2 0.273,1.946C0.179,1.898 0.102,1.821 0.054,1.727C0,1.62 0,1.48 0,1.2L0,0.8Z" style="fill:rgb(84,138,247);fill-rule:nonzero;"/>
    </g>
    <g transform="matrix(2,0,0,2,16,20)">
        <path d="M0,0.8C0,0.52 0,0.38 0.054,0.273C0.102,0.179 0.179,0.102 0.273,0.054C0.38,0 0.52,0 0.8,0L1.2,0C1.48,0 1.62,0 1.727,0.054C1.821,0.102 1.898,0.179 1.946,0.273C2,0.38 2,0.52 2,0.8L2,1.2C2,1.48 2,1.62 1.946,1.727C1.898,1.821 1.821,1.898 1.727,1.946C1.62,2 1.48,2 1.2,2L0.8,2C0.52,2 0.38,2 0.273,1.946C0.179,1.898 0.102,1.821 0.054,1.727C0,1.62 0,1.48 0,1.2L0,0.8Z" style="fill:rgb(84,138,247);fill-rule:nonzero;"/>
    </g>
    <g transform="matrix(2,0,0,2,16,12)">
        <path d="M0,0.8C0,0.52 0,0.38 0.054,0.273C0.102,0.179 0.179,0.102 0.273,0.054C0.38,0 0.52,0 0.8,0L1.2,0C1.48,0 1.62,0 1.727,0.054C1.821,0.102 1.898,0.179 1.946,0.273C2,0.38 2,0.52 2,0.8L2,1.2C2,1.48 2,1.62 1.946,1.727C1.898,1.821 1.821,1.898 1.727,1.946C1.62,2 1.48,2 1.2,2L0.8,2C0.52,2 0.38,2 0.273,1.946C0.179,1.898 0.102,1.821 0.054,1.727C0,1.62 0,1.48 0,1.2L0,0.8Z" style="fill:rgb(84,138,247);fill-rule:nonzero;"/>
    </g>
</svg>
