<?xml version="1.0" encoding="UTF-8" standalone="no"?>
<!DOCTYPE svg PUBLIC "-//W3C//DTD SVG 1.1//EN" "http://www.w3.org/Graphics/SVG/1.1/DTD/svg11.dtd">
<svg width="100%" height="100%" viewBox="0 0 32 32" version="1.1" xmlns="http://www.w3.org/2000/svg" xmlns:xlink="http://www.w3.org/1999/xlink" xml:space="preserve" xmlns:serif="http://www.serif.com/" style="fill-rule:evenodd;clip-rule:evenodd;stroke-linejoin:round;stroke-miterlimit:2;">
    <g transform="matrix(2,0,0,2,2.87079,2)">
        <path d="M0.109,4.289C0.088,4.338 0.068,4.389 0.048,4.439C-0.035,4.649 -0.008,4.885 0.107,5.079L1.01,6.604C1.155,6.848 1.155,7.152 1.01,7.396L0.107,8.921C-0.008,9.115 -0.035,9.351 0.048,9.561C0.068,9.611 0.088,9.661 0.109,9.711M0.109,4.289C0.339,3.742 0.637,3.23 0.991,2.764C1.024,2.721 1.057,2.679 1.091,2.637C1.232,2.46 1.449,2.366 1.675,2.368L3.444,2.388C3.462,2.388 3.48,2.387 3.497,2.386C3.76,2.371 4,2.223 4.13,1.991L4.999,0.449C4.999,0.449 4.999,0.449 4.999,0.449C5.11,0.252 5.301,0.11 5.524,0.077C5.578,0.069 5.631,0.061 5.685,0.055C5.973,0.019 6.267,0 6.565,0C6.862,0 7.156,0.019 7.444,0.055C7.444,0.055 7.444,0.055 7.444,0.055C7.497,0.061 7.552,0.069 7.605,0.077C7.828,0.11 8.019,0.251 8.13,0.448C8.13,0.448 8.999,1.991 8.999,1.991C9.138,2.239 9.401,2.391 9.685,2.388L11.454,2.368C11.454,2.368 11.454,2.368 11.454,2.368C11.68,2.366 11.898,2.46 12.039,2.637C12.072,2.678 12.105,2.72 12.137,2.763C12.137,2.763 12.138,2.764 12.138,2.764C12.492,3.23 12.79,3.741 13.02,4.288C13.02,4.288 13.02,4.289 13.02,4.288C13.041,4.338 13.062,4.389 13.081,4.439C13.164,4.649 13.137,4.884 13.022,5.079C13.022,5.079 13.022,5.079 13.022,5.079L12.119,6.604C11.974,6.848 11.974,7.152 12.119,7.396L13.022,8.921C13.022,8.921 13.022,8.921 13.022,8.921C13.137,9.115 13.164,9.351 13.081,9.561C13.062,9.611 13.042,9.66 13.021,9.709C13.021,9.71 13.02,9.711 13.02,9.712C12.79,10.259 12.492,10.77 12.138,11.236C12.105,11.279 12.072,11.321 12.039,11.363C11.898,11.54 11.68,11.634 11.454,11.632L9.685,11.612C9.667,11.612 9.65,11.613 9.632,11.614C9.369,11.629 9.129,11.777 8.999,12.009L8.13,13.551C8.131,13.551 8.13,13.551 8.13,13.551C8.019,13.748 7.828,13.89 7.605,13.923C7.551,13.931 7.498,13.939 7.444,13.945C7.156,13.981 6.862,14 6.565,14C6.267,14 5.973,13.981 5.685,13.945C5.685,13.945 5.684,13.945 5.684,13.945C5.63,13.938 5.577,13.931 5.524,13.923C5.301,13.89 5.11,13.748 4.999,13.551L4.13,12.009C3.991,11.761 3.728,11.609 3.444,11.612L1.675,11.632C1.449,11.634 1.232,11.54 1.091,11.363C1.057,11.321 1.024,11.279 0.991,11.236C0.637,10.77 0.339,10.258 0.109,9.711M1.787,3.37C1.77,3.392 1.753,3.414 1.736,3.437C1.455,3.818 1.217,4.234 1.031,4.676L1.87,6.094C2.201,6.653 2.201,7.347 1.87,7.906L1.031,9.324C1.042,9.35 1.053,9.377 1.065,9.403C1.257,9.842 1.5,10.253 1.787,10.63L3.433,10.612C4.082,10.605 4.684,10.952 5.002,11.518L5.81,12.953C5.818,12.954 5.827,12.955 5.836,12.956C6.075,12.985 6.318,13 6.565,13C6.821,13 7.073,12.984 7.32,12.953L8.127,11.518C8.446,10.952 9.047,10.605 9.696,10.612L11.342,10.63C11.359,10.608 11.376,10.586 11.393,10.563C11.675,10.182 11.912,9.766 12.098,9.324L11.259,7.906C11.217,7.836 11.181,7.764 11.15,7.69C10.933,7.176 10.969,6.583 11.259,6.094L12.098,4.676C12.087,4.65 12.076,4.623 12.064,4.597C11.872,4.158 11.629,3.747 11.342,3.37L9.696,3.388C9.047,3.395 8.446,3.048 8.127,2.482L7.32,1.047C7.311,1.046 7.302,1.045 7.293,1.044C7.055,1.015 6.812,1 6.565,1C6.308,1 6.056,1.016 5.81,1.047L5.002,2.482C4.684,3.048 4.082,3.395 3.433,3.388L1.787,3.37ZM6.565,8.651C7.476,8.651 8.216,7.912 8.216,7C8.216,6.088 7.476,5.349 6.565,5.349C5.653,5.349 4.914,6.088 4.914,7C4.914,7.912 5.653,8.651 6.565,8.651ZM9.216,7C9.216,8.464 8.029,9.651 6.565,9.651C5.1,9.651 3.914,8.464 3.914,7C3.914,5.536 5.1,4.349 6.565,4.349C8.029,4.349 9.216,5.536 9.216,7Z" style="fill:rgb(206,208,214);"/>
    </g>
</svg>
