<?xml version="1.0" encoding="UTF-8" standalone="no"?>
<!DOCTYPE svg PUBLIC "-//W3C//DTD SVG 1.1//EN" "http://www.w3.org/Graphics/SVG/1.1/DTD/svg11.dtd">
<svg width="100%" height="100%" viewBox="0 0 32 32" version="1.1" xmlns="http://www.w3.org/2000/svg" xmlns:xlink="http://www.w3.org/1999/xlink" xml:space="preserve" xmlns:serif="http://www.serif.com/" style="fill-rule:evenodd;clip-rule:evenodd;stroke-linejoin:round;stroke-miterlimit:2;">
    <g transform="matrix(2,0,0,2,3.63,2)">
        <path d="M6.177,14L1.126,12.601L0,0L12.37,0L11.243,12.599L6.177,14Z" style="fill:rgb(38,77,228);fill-rule:nonzero;"/>
    </g>
    <g transform="matrix(0.178193,-1.99205,-1.99205,-0.178193,32.4581,22.0554)">
        <path d="M-2.13,3.961L8.679,3.961L8.229,8.997L-3.623,7.937L-2.13,3.961Z" style="fill:rgb(41,101,241);fill-rule:nonzero;"/>
    </g>
    <g transform="matrix(0.178906,1.99198,1.99198,-0.178906,10.5328,11.5011)">
        <path d="M0.871,-0.953L2.423,-0.953L2.733,2.498L1.194,2.637L0.871,-0.953Z" style="fill:rgb(235,235,235);fill-rule:nonzero;"/>
    </g>
    <g transform="matrix(2,0,0,2,8.23547,7.15138)">
        <path d="M0,-0L0.141,1.545L3.883,1.545L3.883,-0L0,-0Z" style="fill:rgb(235,235,235);fill-rule:nonzero;"/>
    </g>
    <g transform="matrix(2,0,0,2,9.20813,18.043)">
        <path d="M3.396,1.695L3.389,1.697L1.665,1.233L1.555,-0L0,-0L0.217,2.426L3.389,3.305L3.396,3.303L3.396,1.695Z" style="fill:rgb(235,235,235);fill-rule:nonzero;"/>
    </g>
    <g transform="matrix(2,0,0,2,15.9894,7.15134)">
        <path d="M3.6,3.128L3.879,0L0,0L0,1.545L2.182,1.545L2.041,3.128L0,3.128L0,4.673L1.907,4.673L1.727,6.678L0,7.143L0,8.751L3.175,7.873L3.198,7.611L3.562,3.543L3.6,3.128Z" style="fill:white;fill-rule:nonzero;"/>
    </g>
</svg>
