<?xml version="1.0" encoding="UTF-8" standalone="no"?>
<!DOCTYPE svg PUBLIC "-//W3C//DTD SVG 1.1//EN" "http://www.w3.org/Graphics/SVG/1.1/DTD/svg11.dtd">
<svg width="100%" height="100%" viewBox="0 0 32 32" version="1.1" xmlns="http://www.w3.org/2000/svg" xmlns:xlink="http://www.w3.org/1999/xlink" xml:space="preserve" xmlns:serif="http://www.serif.com/" style="fill-rule:evenodd;clip-rule:evenodd;stroke-linejoin:round;stroke-miterlimit:2;">
    <g transform="matrix(2,0,0,2,4,2)">
        <path d="M9.418,8.161C9.219,8.161 9.057,8.114 8.858,8.032C8.301,7.785 7.895,7.293 7.776,6.758C8.074,6.552 8.444,6.442 8.808,6.449C9.027,6.453 9.246,6.498 9.455,6.591C9.614,6.673 9.769,6.75 9.928,6.874C10.485,7.286 10.134,8.202 9.418,8.161ZM6.98,9.885C6.86,9.762 6.786,9.599 6.706,9.435C6.467,8.858 6.549,8.24 6.868,7.787C7.425,7.911 7.935,8.279 8.174,8.856C8.253,9.02 8.298,9.231 8.298,9.396C8.338,10.014 7.418,10.379 6.98,9.885ZM6.631,2.678C6.711,2.514 6.786,2.354 6.905,2.189C7.069,1.989 7.304,1.908 7.527,1.932C7.899,1.971 8.248,2.279 8.224,2.717C8.224,2.882 8.179,3.093 8.099,3.257C7.86,3.834 7.388,4.202 6.83,4.326C6.472,3.873 6.392,3.255 6.631,2.678ZM5.549,9.396C5.47,9.561 5.395,9.721 5.276,9.885C4.877,10.421 3.954,10.045 3.994,9.345C3.994,9.18 4.039,8.982 4.119,8.817C4.357,8.24 4.83,7.872 5.387,7.749C5.706,8.243 5.788,8.861 5.549,9.396ZM3.36,8.071C3.2,8.153 2.999,8.199 2.8,8.199C2.083,8.24 1.735,7.378 2.253,6.925C2.372,6.802 2.526,6.712 2.725,6.629C2.934,6.537 3.153,6.492 3.372,6.488C3.735,6.481 4.091,6.589 4.392,6.797C4.313,7.332 3.917,7.823 3.36,8.071ZM2.676,3.952C2.718,3.95 2.755,3.947 2.8,3.952C2.999,3.952 3.161,3.999 3.36,4.081C3.917,4.328 4.323,4.82 4.442,5.355C3.964,5.685 3.32,5.769 2.763,5.523C2.604,5.44 2.449,5.35 2.29,5.227C1.767,4.802 2.048,3.986 2.676,3.952ZM4.629,1.97C4.847,1.949 5.074,2.027 5.238,2.228C5.358,2.351 5.432,2.514 5.512,2.678C5.751,3.255 5.669,3.873 5.35,4.326C4.793,4.202 4.283,3.834 4.044,3.257C3.964,3.093 3.92,2.882 3.92,2.717C3.92,2.305 4.265,2.006 4.629,1.97ZM9.083,0.825C8.974,0.759 8.863,0.694 8.748,0.636C8.631,0.578 8.511,0.521 8.389,0.472C8.35,0.455 8.312,0.44 8.273,0.424C8.167,0.384 8.059,0.339 7.949,0.307C7.356,0.107 6.722,0 6.063,0C2.712,0 0,2.762 0,6.175C0,9.18 2.115,11.677 4.906,12.232L4.906,14C8.535,13.443 11.748,10.509 11.988,6.658C12.132,4.34 10.997,1.974 9.083,0.825Z" style="fill:rgb(0,168,23);"/>
    </g>
</svg>
