<?xml version="1.0" encoding="UTF-8" standalone="no"?>
<!DOCTYPE svg PUBLIC "-//W3C//DTD SVG 1.1//EN" "http://www.w3.org/Graphics/SVG/1.1/DTD/svg11.dtd">
<svg width="100%" height="100%" viewBox="0 0 32 32" version="1.1" xmlns="http://www.w3.org/2000/svg" xmlns:xlink="http://www.w3.org/1999/xlink" xml:space="preserve" xmlns:serif="http://www.serif.com/" style="fill-rule:evenodd;clip-rule:evenodd;stroke-linejoin:round;stroke-miterlimit:2;">
    <g transform="matrix(2,0,0,2,1.6197,10.2688)">
        <path d="M13.077,1.593C13.839,1.593 14.201,1.866 14.239,1.896L14.38,2.008L14.322,2.179C14.229,2.414 14.085,2.627 13.901,2.801C13.625,3.075 13.123,3.401 12.307,3.401L12.176,3.401C12.109,3.571 12.037,3.769 11.959,3.985C11.653,4.832 11.251,5.947 10.657,6.619C10.211,7.123 9.687,7.552 9.105,7.89C8.398,8.29 7.629,8.569 6.83,8.716C6.255,8.823 5.672,8.876 5.087,8.874C3.793,8.874 3.237,8.728 2.335,8.298C1.432,7.867 0.889,7.158 0.402,6.053C0.131,5.441 0.034,4.531 0.001,3.842C-0.025,3.304 0.416,2.878 0.954,2.878L9.955,2.878C10.07,2.874 10.638,2.825 10.992,2.628C10.699,2.164 10.616,1.622 10.752,1.045C10.772,0.962 10.796,0.88 10.823,0.799C10.896,0.586 10.994,0.383 11.116,0.194L11.251,-0L11.455,0.118C11.493,0.14 12.329,0.634 12.476,1.644C12.675,1.611 12.876,1.594 13.077,1.593ZM4.739,6.357C4.739,6.772 4.404,7.107 3.989,7.107C3.575,7.107 3.239,6.772 3.239,6.357C3.239,5.943 3.575,5.607 3.989,5.607C4.404,5.607 4.739,5.943 4.739,6.357Z" style="fill:rgb(84,138,247);"/>
    </g>
    <g transform="matrix(2,0,0,2,7.59822,3.98369)">
        <path d="M4,0L1,0C0.448,0 0,0.448 0,1L0,4C0,4.552 0.448,5 1,5L4,5C4.552,5 5,4.552 5,4L5,1C5,0.448 4.552,0 4,0Z" style="fill:rgb(84,138,247);fill-rule:nonzero;"/>
    </g>
</svg>
