<?xml version="1.0" encoding="UTF-8" standalone="no"?>
<!DOCTYPE svg PUBLIC "-//W3C//DTD SVG 1.1//EN" "http://www.w3.org/Graphics/SVG/1.1/DTD/svg11.dtd">
<svg width="100%" height="100%" viewBox="0 0 32 32" version="1.1" xmlns="http://www.w3.org/2000/svg" xmlns:xlink="http://www.w3.org/1999/xlink" xml:space="preserve" xmlns:serif="http://www.serif.com/" style="fill-rule:evenodd;clip-rule:evenodd;stroke-linejoin:round;stroke-miterlimit:2;">
    <g transform="matrix(2,0,0,2,7,3)">
        <path d="M0,4.414C0,4.149 0.105,3.895 0.293,3.707L3.707,0.293C3.895,0.105 4.149,0 4.414,0L8,0C8.552,0 9,0.448 9,1L9,11.999C9,12.551 8.552,13 8,13L1,13C0.448,13 0,12.552 0,12L0,4.414Z" style="fill:rgb(67,69,74);fill-rule:nonzero;"/>
    </g>
    <g transform="matrix(2,0,0,2,6,2)">
        <path d="M4.914,0C4.516,0 4.135,0.158 3.854,0.439L0.439,3.854C0.158,4.135 0,4.516 0,4.914L0,12.5C0,13.328 0.672,14 1.5,14L8,14C9.105,14 10,13.105 10,12L10,1.5C10,0.672 9.328,0 8.5,0L4.914,0ZM9,1.5C9,1.224 8.776,1 8.5,1L5,1L5,3.5C5,4.328 4.328,5 3.5,5L1,5L1,12.5C1,12.776 1.224,13 1.5,13L8,13C8.552,13 9,12.552 9,12L9,1.5ZM4,1.707L1.707,4L3.5,4C3.776,4 4,3.776 4,3.5L4,1.707Z" style="fill:rgb(206,208,214);"/>
    </g>
</svg>
