<?xml version="1.0" encoding="UTF-8" standalone="no"?>
<!DOCTYPE svg PUBLIC "-//W3C//DTD SVG 1.1//EN" "http://www.w3.org/Graphics/SVG/1.1/DTD/svg11.dtd">
<svg width="100%" height="100%" viewBox="0 0 32 32" version="1.1" xmlns="http://www.w3.org/2000/svg" xmlns:xlink="http://www.w3.org/1999/xlink" xml:space="preserve" xmlns:serif="http://www.serif.com/" style="fill-rule:evenodd;clip-rule:evenodd;stroke-linejoin:round;stroke-miterlimit:2;">
    <g transform="matrix(2,0,0,2,2,4)">
        <clipPath id="_clip1">
            <path d="M1.75,0C0.784,0 0,0.836 0,1.867L0,10.133C0,11.164 0.784,12 1.75,12L12.25,12C13.216,12 14,11.164 14,10.133L14,4C14,2.895 13.105,2 12,2L7.5,2L5.736,0.283C5.549,0.102 5.299,0 5.038,0L1.75,0Z"/>
        </clipPath>
        <g clip-path="url(#_clip1)">
            <path d="M5.736,0.283L6.433,-0.433L5.736,0.283ZM7.5,2L6.803,2.717L7.094,3L7.5,3L7.5,2ZM12,2L12,3L12,2ZM1,1.867C1,1.326 1.396,1 1.75,1L1.75,-1C0.171,-1 -1,0.345 -1,1.867L1,1.867ZM1,10.133L1,1.867L-1,1.867L-1,10.133L1,10.133ZM1.75,11C1.396,11 1,10.674 1,10.133L-1,10.133C-1,11.655 0.171,13 1.75,13L1.75,11ZM12.25,11L1.75,11L1.75,13L12.25,13L12.25,11ZM13,10.133C13,10.674 12.604,11 12.25,11L12.25,13C13.829,13 15,11.655 15,10.133L13,10.133ZM1.75,1L5.038,1L5.038,-1L1.75,-1L1.75,1ZM5.038,1L6.803,2.717L8.197,1.283L6.433,-0.433L5.038,1ZM13,4L13,10.133L15,10.133L15,4L13,4ZM7.5,3L12,3L12,1L7.5,1L7.5,3ZM15,4C15,2.343 13.657,1 12,1L12,3C12.552,3 13,3.448 13,4L15,4ZM5.038,1L5.038,1L6.433,-0.433C6.06,-0.797 5.559,-1 5.038,-1L5.038,1Z" style="fill:rgb(134,138,145);fill-rule:nonzero;"/>
        </g>
    </g>
</svg>
