<?xml version="1.0" encoding="UTF-8" standalone="no"?>
<!DOCTYPE svg PUBLIC "-//W3C//DTD SVG 1.1//EN" "http://www.w3.org/Graphics/SVG/1.1/DTD/svg11.dtd">
<svg width="100%" height="100%" viewBox="0 0 32 32" version="1.1" xmlns="http://www.w3.org/2000/svg" xmlns:xlink="http://www.w3.org/1999/xlink" xml:space="preserve" xmlns:serif="http://www.serif.com/" style="fill-rule:evenodd;clip-rule:evenodd;stroke-linejoin:round;stroke-miterlimit:2;">
    <g transform="matrix(2,0,0,2,0.144182,8.29997)">
        <path d="M11.352,2.453C11.352,2.14 11.098,1.887 10.785,1.887L10.274,1.887L10.521,0.739C10.603,0.359 10.314,0 9.925,0C9.637,0 9.389,0.201 9.328,0.482L9.025,1.892L7.491,1.892L7.739,0.738C7.821,0.359 7.531,0 7.142,0C6.855,0 6.606,0.201 6.546,0.482L6.242,1.898L5.445,1.898C5.132,1.898 4.878,2.151 4.878,2.464C4.878,2.777 5.132,3.031 5.445,3.031L6,3.031L5.648,4.686L4.892,4.686C4.581,4.686 4.328,4.938 4.328,5.25C4.328,5.561 4.581,5.814 4.892,5.814L5.406,5.814L5.158,6.961C5.077,7.341 5.366,7.7 5.755,7.7C6.042,7.7 6.291,7.499 6.351,7.218L6.655,5.808L8.189,5.808L7.941,6.962C7.859,7.342 8.149,7.7 8.537,7.7C8.825,7.7 9.074,7.499 9.134,7.218L9.438,5.803L10.238,5.803C10.549,5.803 10.802,5.55 10.802,5.239C10.802,4.927 10.549,4.675 10.238,4.675L9.68,4.675L10.032,3.02L10.785,3.02C11.098,3.02 11.352,2.766 11.352,2.453ZM8.431,4.681L6.897,4.681L7.249,3.025L8.783,3.025L8.431,4.681ZM4.241,0.307C4.481,0.535 4.491,0.915 4.263,1.155L1.656,3.897L4.263,6.639C4.491,6.879 4.481,7.259 4.241,7.488C4.001,7.716 3.621,7.706 3.393,7.466L0,3.897L3.393,0.328C3.621,0.088 4.001,0.079 4.241,0.307ZM11.614,7.488C11.374,7.259 11.365,6.879 11.593,6.639L14.2,3.897L11.593,1.155C11.365,0.915 11.374,0.535 11.614,0.307C11.855,0.079 12.234,0.088 12.463,0.328L15.463,3.484L15.856,3.897L12.463,7.466C12.234,7.706 11.855,7.716 11.614,7.488Z" style="fill:rgb(84,138,247);"/>
    </g>
</svg>
