<?xml version="1.0" encoding="UTF-8" standalone="no"?>
<!DOCTYPE svg PUBLIC "-//W3C//DTD SVG 1.1//EN" "http://www.w3.org/Graphics/SVG/1.1/DTD/svg11.dtd">
<svg width="100%" height="100%" viewBox="0 0 32 32" version="1.1" xmlns="http://www.w3.org/2000/svg" xmlns:xlink="http://www.w3.org/1999/xlink" xml:space="preserve" xmlns:serif="http://www.serif.com/" style="fill-rule:evenodd;clip-rule:evenodd;stroke-linejoin:round;stroke-miterlimit:2;">
    <g transform="matrix(1.73205,1,-1,1.73205,9.26256,24.3509)">
        <path d="M1.36,1.63L1.36,0.699C1.36,0.549 1.238,0.428 1.088,0.428L0.339,0.428C0.152,0.428 0,0.579 0,0.766L0,1.63C0,2.006 0.304,2.31 0.68,2.31C1.055,2.31 1.36,2.006 1.36,1.63Z" style="fill:rgb(204,161,138);fill-rule:nonzero;"/>
    </g>
    <g transform="matrix(1.73205,1,-1,1.73205,9.34914,24.2009)">
        <path d="M1.26,0.514L1.26,1.717L1.46,1.717L1.46,0.514L1.26,0.514ZM0.1,1.717L0.1,0.514L-0.1,0.514L-0.1,1.717L0.1,1.717ZM0.68,2.297C0.36,2.297 0.1,2.037 0.1,1.717L-0.1,1.717C-0.1,2.147 0.249,2.497 0.68,2.497L0.68,2.297ZM1.26,1.717C1.26,2.037 1,2.297 0.68,2.297L0.68,2.497C1.11,2.497 1.46,2.147 1.46,1.717L1.26,1.717Z" style="fill-rule:nonzero;"/>
    </g>
    <g transform="matrix(1.73205,-1,1,1.73205,20.6892,25.6594)">
        <path d="M1.36,1.703L1.36,0.688C1.36,0.538 1.238,0.416 1.088,0.416L0.339,0.416C0.152,0.416 0,0.568 0,0.755L0,1.703C0,2.078 0.304,2.382 0.68,2.382C1.055,2.382 1.36,2.078 1.36,1.703Z" style="fill:rgb(204,161,138);fill-rule:nonzero;"/>
    </g>
    <g transform="matrix(1.73205,-1,1,1.73205,20.6026,25.5094)">
        <path d="M1.26,0.503L1.26,1.789L1.46,1.789L1.46,0.503L1.26,0.503ZM0.1,1.789L0.1,0.503L-0.1,0.503L-0.1,1.789L0.1,1.789ZM0.68,2.369C0.36,2.369 0.1,2.109 0.1,1.789L-0.1,1.789C-0.1,2.22 0.249,2.569 0.68,2.569L0.68,2.369ZM1.26,1.789C1.26,2.109 1,2.369 0.68,2.369L0.68,2.569C1.11,2.569 1.46,2.22 1.46,1.789L1.26,1.789Z" style="fill-rule:nonzero;"/>
    </g>
    <g transform="matrix(1.21575,-1.58806,-1.58806,-1.21575,8.15654,7.65646)">
        <path d="M1.189,1.611L1.37,0.976C1.435,0.747 1.26,0.52 1.022,0.525L0.506,0.525C0.25,0.527 0.066,0.771 0.133,1.018L0.293,1.606C0.347,1.802 0.522,1.941 0.726,1.948C0.94,1.955 1.13,1.816 1.189,1.611Z" style="fill:rgb(111,175,212);fill-rule:nonzero;"/>
    </g>
    <g transform="matrix(1.21575,-1.58806,-1.58806,-1.21575,8.54518,7.83417)">
        <path d="M1.339,0.697L1.023,1.83L1.216,1.883L1.531,0.751L1.339,0.697ZM0.368,1.825L0.097,0.789L-0.097,0.839L0.175,1.875L0.368,1.825ZM0.706,2.078C0.548,2.082 0.408,1.977 0.368,1.825L0.175,1.875C0.238,2.118 0.461,2.285 0.712,2.278L0.706,2.078ZM1.023,1.83C0.983,1.973 0.855,2.074 0.706,2.078L0.712,2.278C0.948,2.271 1.152,2.111 1.216,1.883L1.023,1.83Z" style="fill-rule:nonzero;"/>
    </g>
    <g transform="matrix(-1.22766,-1.57888,1.57888,-1.22766,23.832,7.66719)">
        <path d="M1.189,1.613L1.37,0.978C1.435,0.749 1.26,0.522 1.022,0.527L0.506,0.527C0.25,0.53 0.066,0.774 0.133,1.021L0.293,1.608C0.347,1.805 0.522,1.943 0.726,1.95C0.94,1.957 1.13,1.818 1.189,1.613Z" style="fill:rgb(111,175,212);fill-rule:nonzero;"/>
    </g>
    <g transform="matrix(-1.22766,-1.57888,1.57888,-1.22766,23.4458,7.8475)">
        <path d="M1.339,0.699L1.023,1.832L1.216,1.885L1.531,0.753L1.339,0.699ZM0.368,1.827L0.097,0.791L-0.097,0.841L0.175,1.877L0.368,1.827ZM0.706,2.08C0.548,2.084 0.408,1.979 0.368,1.827L0.175,1.877C0.238,2.12 0.461,2.287 0.712,2.28L0.706,2.08ZM1.023,1.832C0.983,1.975 0.855,2.076 0.706,2.08L0.712,2.28C0.948,2.273 1.152,2.113 1.216,1.885L1.023,1.832Z" style="fill-rule:nonzero;"/>
    </g>
    <g transform="matrix(2,0,0,2,6.01373,1.94105)">
        <path d="M0.036,4.373C0.113,1.901 2.256,-0 4.421,-0L5.595,-0C7.74,-0 9.883,1.923 9.951,4.373C9.995,5.977 9.995,7.551 9.951,9.154C9.883,11.605 8.164,13.051 6.018,13.051L4.14,13.051C1.975,13.051 0.113,11.571 0.036,9.099C-0.012,7.531 -0.012,5.94 0.036,4.373Z" style="fill:rgb(93,168,211);fill-rule:nonzero;"/>
    </g>
    <g transform="matrix(2,0,0,2,6.01373,1.94105)">
        <clipPath id="_clip1">
            <path d="M0.036,4.373C0.113,1.9 2.256,-0 4.421,-0L5.595,-0C7.74,-0 9.883,1.923 9.951,4.373C9.995,5.977 9.995,7.551 9.951,9.154C9.883,11.605 8.164,13.051 6.018,13.051L4.14,13.051C1.975,13.051 0.113,11.571 0.036,9.098C-0.012,7.531 -0.012,5.94 0.036,4.373Z"/>
        </clipPath>
        <g clip-path="url(#_clip1)">
            <path d="M0.036,9.099L-0.164,9.105L0.036,9.099ZM9.951,9.154L9.751,9.149L9.951,9.154ZM9.951,4.373L9.751,4.379L9.951,4.373ZM0.036,4.373L-0.164,4.367L0.036,4.373ZM4.421,0.2L5.595,0.2L5.595,-0.2L4.421,-0.2L4.421,0.2ZM6.018,12.851L4.14,12.851L4.14,13.251L6.018,13.251L6.018,12.851ZM4.14,12.851C2.071,12.851 0.309,11.446 0.236,9.092L-0.164,9.105C-0.083,11.697 1.879,13.251 4.14,13.251L4.14,12.851ZM6.018,13.251C7.136,13.251 8.153,12.874 8.901,12.167C9.65,11.459 10.116,10.433 10.151,9.16L9.751,9.149C9.719,10.327 9.291,11.248 8.626,11.876C7.961,12.505 7.046,12.851 6.018,12.851L6.018,13.251ZM5.595,0.2C7.633,0.2 9.686,2.037 9.751,4.379L10.151,4.368C10.08,1.808 7.848,-0.2 5.595,-0.2L5.595,0.2ZM4.421,-0.2C2.149,-0.2 -0.084,1.785 -0.164,4.367L0.236,4.379C0.309,2.016 2.362,0.2 4.421,0.2L4.421,-0.2ZM0.236,9.092C0.188,7.529 0.188,5.943 0.236,4.379L-0.164,4.367C-0.212,5.938 -0.212,7.533 -0.164,9.105L0.236,9.092ZM9.751,4.379C9.795,5.978 9.795,7.549 9.751,9.149L10.151,9.16C10.195,7.553 10.195,5.975 10.151,4.368L9.751,4.379Z" style="fill-rule:nonzero;"/>
        </g>
    </g>
    <g transform="matrix(2,0,0,2,6.01373,1.94096)">
        <path d="M4.421,0C2.256,0 0.113,1.901 0.036,4.373C-0.012,5.941 -0.012,7.531 0.036,9.099C0.111,11.503 1.874,12.969 3.962,13.047C3.664,12.388 3.498,11.656 3.498,10.886C3.498,7.987 5.848,5.637 8.747,5.637C9.171,5.637 9.584,5.687 9.979,5.782C9.973,5.314 9.964,4.845 9.951,4.373C9.883,1.923 7.74,0 5.595,0L4.421,0Z" style="fill:rgb(93,168,211);"/>
    </g>
    <g transform="matrix(2,0,0,2,6.01373,1.94096)">
        <path d="M4.421,0.2L5.595,0.2C7.633,0.2 9.686,2.037 9.751,4.379C9.764,4.834 9.773,5.286 9.778,5.738C9.846,5.751 9.912,5.766 9.979,5.782C9.973,5.314 9.964,4.845 9.951,4.373C9.883,1.923 7.74,0 5.595,0L4.421,0C2.256,0 0.113,1.901 0.036,4.373C-0.012,5.941 -0.012,7.531 0.036,9.099C0.111,11.503 1.874,12.969 3.962,13.047C3.932,12.98 3.903,12.912 3.875,12.843C1.923,12.728 0.306,11.344 0.236,9.092C0.188,7.529 0.188,5.943 0.236,4.379C0.309,2.016 2.362,0.2 4.421,0.2Z"/>
    </g>
    <g transform="matrix(2,0,0,2,6.01373,1.94105)">
        <path d="M4.421,-0C2.256,-0 0.113,1.901 0.036,4.373C-0.012,5.94 -0.012,7.531 0.036,9.099C0.113,11.571 1.975,13.051 4.14,13.051L6.018,13.051C6.054,13.051 6.09,13.05 6.126,13.05C6.041,12.675 5.996,12.286 5.996,11.886C5.996,9.421 7.694,7.354 9.984,6.789C9.985,5.986 9.974,5.183 9.951,4.373C9.883,1.923 7.74,-0 5.595,-0L4.421,-0Z" style="fill:rgb(93,168,211);"/>
    </g>
    <g transform="matrix(2,0,0,2,6.01373,1.94105)">
        <path d="M4.421,0.2L5.595,0.2C7.633,0.2 9.686,2.037 9.751,4.379C9.774,5.205 9.785,6.024 9.784,6.843C9.85,6.824 9.917,6.806 9.984,6.789C9.985,5.986 9.974,5.183 9.951,4.373C9.883,1.923 7.74,-0 5.595,-0L4.421,-0C2.256,-0 0.113,1.901 0.036,4.373C-0.012,5.94 -0.012,7.531 0.036,9.099C0.113,11.571 1.975,13.051 4.14,13.051L6.018,13.051C6.054,13.051 6.09,13.05 6.126,13.05C6.111,12.984 6.097,12.917 6.084,12.85C6.062,12.851 6.04,12.851 6.018,12.851L4.14,12.851C2.071,12.851 0.309,11.446 0.236,9.092C0.188,7.529 0.188,5.943 0.236,4.379C0.309,2.016 2.362,0.2 4.421,0.2Z"/>
    </g>
    <g transform="matrix(2,0,0,2,6.01373,1.94103)">
        <path d="M4.421,-0C2.256,-0 0.113,1.901 0.036,4.373C-0.012,5.94 -0.012,7.531 0.036,9.099C0.103,11.261 1.536,12.664 3.342,12.982L2.751,12.391C2.322,11.961 2.372,11.252 2.856,10.886L7.739,7.196C8.063,6.951 8.502,6.926 8.852,7.134L9.978,7.802C9.992,6.659 9.983,5.524 9.951,4.373C9.883,1.923 7.74,-0 5.595,-0L4.421,-0Z" style="fill:rgb(93,168,211);"/>
    </g>
    <g transform="matrix(2,0,0,2,6.01373,1.94103)">
        <path d="M4.421,0.2L5.595,0.2C7.633,0.2 9.686,2.037 9.751,4.379C9.782,5.488 9.791,6.583 9.779,7.684L9.978,7.802C9.992,6.659 9.983,5.524 9.951,4.373C9.883,1.923 7.74,-0 5.595,-0L4.421,-0C2.256,-0 0.113,1.901 0.036,4.373C-0.012,5.94 -0.012,7.531 0.036,9.099C0.103,11.261 1.536,12.664 3.342,12.982L3.083,12.723C1.503,12.326 0.296,11.031 0.236,9.092C0.188,7.529 0.188,5.943 0.236,4.379C0.309,2.016 2.362,0.2 4.421,0.2Z"/>
    </g>
    <g transform="matrix(0,-2,-2,0,14.6755,12.0754)">
        <path d="M1.64,0.033C0.716,0.033 -0.033,0.768 -0.033,1.673C-0.033,2.579 0.716,3.313 1.64,3.313C2.564,3.313 3.313,2.579 3.313,1.673C3.313,0.768 2.564,0.033 1.64,0.033" style="fill:white;"/>
    </g>
    <g transform="matrix(0,-2,-2,0,11.8968,10.3105)">
        <path d="M0.759,0.015C0.331,0.015 -0.015,0.355 -0.015,0.774C-0.015,1.193 0.331,1.532 0.759,1.532C1.186,1.532 1.532,1.193 1.532,0.774C1.532,0.355 1.186,0.015 0.759,0.015"/>
    </g>
    <g transform="matrix(0,-2,-2,0,24.0124,12.0754)">
        <path d="M1.64,0.033C0.716,0.033 -0.033,0.768 -0.033,1.673C-0.033,2.579 0.716,3.313 1.64,3.313C2.564,3.313 3.313,2.579 3.313,1.673C3.313,0.768 2.564,0.033 1.64,0.033" style="fill:white;"/>
    </g>
    <g transform="matrix(0,-2,-2,0,23.2074,10.3105)">
        <ellipse cx="0.759" cy="0.774" rx="0.774" ry="0.759"/>
    </g>
    <g transform="matrix(2,0,0,2,15.2706,12.6773)">
        <rect x="0" y="0" width="0.977" height="0.804" style="fill:white;"/>
    </g>
    <g transform="matrix(0,-2,-2,0,17.319,14.0949)">
        <path d="M0.976,-0.44C0.68,-0.44 0.44,-0.003 0.44,0.536C0.44,1.075 0.68,1.513 0.976,1.513C1.272,1.513 1.512,1.075 1.512,0.536C1.512,-0.003 1.272,-0.44 0.976,-0.44" style="fill:rgb(204,161,138);"/>
    </g>
    <g transform="matrix(0,-2,-2,0,17.078,12.3374)">
        <path d="M0.375,-0.074C0.074,-0.074 0.098,0.149 0.098,0.423C0.098,0.697 0.074,0.92 0.375,0.92C0.676,0.92 0.92,0.697 0.92,0.423C0.92,0.149 0.676,-0.074 0.375,-0.074"/>
    </g>
    <g transform="matrix(1.41421,-1.41421,1.41421,1.41421,23.6858,17.9958)">
        <path d="M1.15,1.495L1.15,0.522C1.15,0.395 1.048,0.293 0.921,0.293L0.286,0.293C0.128,0.293 0,0.421 0,0.579L0,1.495C0,1.813 0.258,2.07 0.575,2.07C0.893,2.07 1.15,1.813 1.15,1.495Z" style="fill:rgb(204,161,138);fill-rule:nonzero;"/>
    </g>
    <g transform="matrix(1.41421,-1.41421,1.41421,1.41421,23.5271,17.8372)">
        <path d="M1.05,0.405L1.05,1.607L1.25,1.607L1.25,0.405L1.05,0.405ZM0.1,1.607L0.1,0.405L-0.1,0.405L-0.1,1.607L0.1,1.607ZM0.575,2.083C0.313,2.083 0.1,1.87 0.1,1.607L-0.1,1.607C-0.1,1.98 0.202,2.283 0.575,2.283L0.575,2.083ZM1.05,1.607C1.05,1.87 0.838,2.083 0.575,2.083L0.575,2.283C0.948,2.283 1.25,1.98 1.25,1.607L1.05,1.607Z" style="fill-rule:nonzero;"/>
    </g>
    <g transform="matrix(1.41421,1.41421,-1.41421,1.41421,6.68748,16.3688)">
        <path d="M1.15,1.495L1.15,0.522C1.15,0.395 1.048,0.293 0.921,0.293L0.286,0.293C0.128,0.293 0,0.421 0,0.579L0,1.495C0,1.813 0.258,2.071 0.575,2.071C0.893,2.071 1.15,1.813 1.15,1.495Z" style="fill:rgb(204,161,138);fill-rule:nonzero;"/>
    </g>
    <g transform="matrix(1.41421,1.41421,-1.41421,1.41421,6.84611,16.2102)">
        <path d="M1.05,0.405L1.05,1.608L1.25,1.608L1.25,0.405L1.05,0.405ZM0.1,1.608L0.1,0.405L-0.1,0.405L-0.1,1.608L0.1,1.608ZM0.575,2.083C0.313,2.083 0.1,1.87 0.1,1.608L-0.1,1.608C-0.1,1.98 0.202,2.283 0.575,2.283L0.575,2.083ZM1.05,1.608C1.05,1.87 0.838,2.083 0.575,2.083L0.575,2.283C0.948,2.283 1.25,1.98 1.25,1.608L1.05,1.608Z" style="fill-rule:nonzero;"/>
    </g>
</svg>
