<?xml version="1.0" encoding="UTF-8" standalone="no"?>
<!DOCTYPE svg PUBLIC "-//W3C//DTD SVG 1.1//EN" "http://www.w3.org/Graphics/SVG/1.1/DTD/svg11.dtd">
<svg width="100%" height="100%" viewBox="0 0 32 32" version="1.1" xmlns="http://www.w3.org/2000/svg" xmlns:xlink="http://www.w3.org/1999/xlink" xml:space="preserve" xmlns:serif="http://www.serif.com/" style="fill-rule:evenodd;clip-rule:evenodd;stroke-linejoin:round;stroke-miterlimit:2;">
    <g transform="matrix(2,0,0,2,1.04541,7.49184)">
        <path d="M5.846,1.228C6.107,1.024 6.154,0.647 5.951,0.386C5.747,0.124 5.37,0.077 5.109,0.28L0,4.254L5.109,8.228C5.37,8.431 5.747,8.384 5.951,8.122C6.154,7.861 6.107,7.484 5.846,7.28L1.955,4.254L5.846,1.228Z" style="fill:rgb(87,150,92);fill-rule:nonzero;"/>
    </g>
    <g transform="matrix(2,0,0,2,1.04541,7.49184)">
        <path d="M9.109,1.228C8.847,1.024 8.8,0.647 9.004,0.386C9.207,0.124 9.584,0.077 9.846,0.28L14.955,4.254L9.846,8.228C9.584,8.431 9.207,8.384 9.004,8.122C8.8,7.861 8.847,7.484 9.109,7.28L13,4.254L9.109,1.228Z" style="fill:rgb(87,150,92);fill-rule:nonzero;"/>
    </g>
</svg>
