<?xml version="1.0" encoding="UTF-8" standalone="no"?>
<!DOCTYPE svg PUBLIC "-//W3C//DTD SVG 1.1//EN" "http://www.w3.org/Graphics/SVG/1.1/DTD/svg11.dtd">
<svg width="100%" height="100%" viewBox="0 0 32 32" version="1.1" xmlns="http://www.w3.org/2000/svg" xmlns:xlink="http://www.w3.org/1999/xlink" xml:space="preserve" xmlns:serif="http://www.serif.com/" style="fill-rule:evenodd;clip-rule:evenodd;stroke-linejoin:round;stroke-miterlimit:2;">
    <g transform="matrix(0,-2,-2,0,29,29)">
        <circle cx="6.5" cy="6.5" r="6.5" style="fill:rgb(67,69,74);"/>
    </g>
    <g transform="matrix(2,0,0,2,3,1)">
        <path d="M12.5,7.5C12.5,10.814 9.814,13.5 6.5,13.5L6.5,14.5C10.366,14.5 13.5,11.366 13.5,7.5L12.5,7.5ZM6.5,13.5C3.186,13.5 0.5,10.814 0.5,7.5L-0.5,7.5C-0.5,11.366 2.634,14.5 6.5,14.5L6.5,13.5ZM0.5,7.5C0.5,4.186 3.186,1.5 6.5,1.5L6.5,0.5C2.634,0.5 -0.5,3.634 -0.5,7.5L0.5,7.5ZM6.5,1.5C9.814,1.5 12.5,4.186 12.5,7.5L13.5,7.5C13.5,3.634 10.366,0.5 6.5,0.5L6.5,1.5Z" style="fill:rgb(206,208,214);fill-rule:nonzero;"/>
    </g>
    <g transform="matrix(1.41421,-1.41421,-1.41421,-1.41421,17,29.7279)">
        <rect x="-1.864" y="4.707" width="12.728" height="1" style="fill:rgb(206,208,214);"/>
    </g>
</svg>
