<?xml version="1.0" encoding="UTF-8" standalone="no"?>
<!DOCTYPE svg PUBLIC "-//W3C//DTD SVG 1.1//EN" "http://www.w3.org/Graphics/SVG/1.1/DTD/svg11.dtd">
<svg width="100%" height="100%" viewBox="0 0 32 32" version="1.1" xmlns="http://www.w3.org/2000/svg" xmlns:xlink="http://www.w3.org/1999/xlink" xml:space="preserve" xmlns:serif="http://www.serif.com/" style="fill-rule:evenodd;clip-rule:evenodd;stroke-linejoin:round;stroke-miterlimit:2;">
    <g transform="matrix(2,0,0,2,4,4)">
        <path d="M0,2C0,0.895 0.895,0 2,0L10,0C11.105,0 12,0.895 12,2L12,10C12,11.105 11.105,12 10,12L2,12C0.895,12 0,11.105 0,10L0,2Z" style="fill:rgb(37,50,77);fill-rule:nonzero;"/>
    </g>
    <g transform="matrix(2,0,0,2,4,4)">
        <clipPath id="_clip1">
            <path d="M0,2C0,0.895 0.895,0 2,0L10,0C11.105,0 12,0.895 12,2L12,10C12,11.105 11.105,12 10,12L2,12C0.895,12 0,11.105 0,10L0,2Z"/>
        </clipPath>
        <g clip-path="url(#_clip1)">
            <path d="M2,1L10,1L10,-1L2,-1L2,1ZM11,2L11,10L13,10L13,2L11,2ZM10,11L2,11L2,13L10,13L10,11ZM1,10L1,2L-1,2L-1,10L1,10ZM2,11C1.448,11 1,10.552 1,10L-1,10C-1,11.657 0.343,13 2,13L2,11ZM11,10C11,10.552 10.552,11 10,11L10,13C11.657,13 13,11.657 13,10L11,10ZM10,1C10.552,1 11,1.448 11,2L13,2C13,0.343 11.657,-1 10,-1L10,1ZM2,-1C0.343,-1 -1,0.343 -1,2L1,2C1,1.448 1.448,1 2,1L2,-1Z" style="fill:rgb(84,138,247);fill-rule:nonzero;"/>
        </g>
    </g>
    <g transform="matrix(2,0,0,2,5,12.9308)">
        <path d="M3.06,1.175L2.723,1.544L3.06,1.175ZM0.352,3.225L2.034,1.559L1.33,0.848L-0.352,2.515L0.352,3.225ZM2.723,1.544L9.149,7.404L9.823,6.665L3.397,0.806L2.723,1.544ZM2.034,1.559C2.223,1.371 2.526,1.365 2.723,1.544L3.397,0.806C2.806,0.267 1.898,0.286 1.33,0.848L2.034,1.559Z" style="fill:rgb(84,138,247);fill-rule:nonzero;"/>
    </g>
    <g transform="matrix(2,0,0,2,17,7)">
        <path d="M2.5,2.5C2.5,3.052 2.052,3.5 1.5,3.5L1.5,4.5C2.605,4.5 3.5,3.605 3.5,2.5L2.5,2.5ZM1.5,3.5C0.948,3.5 0.5,3.052 0.5,2.5L-0.5,2.5C-0.5,3.605 0.395,4.5 1.5,4.5L1.5,3.5ZM0.5,2.5C0.5,1.948 0.948,1.5 1.5,1.5L1.5,0.5C0.395,0.5 -0.5,1.395 -0.5,2.5L0.5,2.5ZM1.5,1.5C2.052,1.5 2.5,1.948 2.5,2.5L3.5,2.5C3.5,1.395 2.605,0.5 1.5,0.5L1.5,1.5Z" style="fill:rgb(84,138,247);fill-rule:nonzero;"/>
    </g>
</svg>
