<?xml version="1.0" encoding="UTF-8" standalone="no"?>
<!DOCTYPE svg PUBLIC "-//W3C//DTD SVG 1.1//EN" "http://www.w3.org/Graphics/SVG/1.1/DTD/svg11.dtd">
<svg width="100%" height="100%" viewBox="0 0 32 32" version="1.1" xmlns="http://www.w3.org/2000/svg" xmlns:xlink="http://www.w3.org/1999/xlink" xml:space="preserve" xmlns:serif="http://www.serif.com/" style="fill-rule:evenodd;clip-rule:evenodd;stroke-linejoin:round;stroke-miterlimit:2;">
    <g transform="matrix(2,0,0,2,2.5,26)">
        <path d="M0,0.5C0,0.224 0.224,0 0.5,0L11.5,0C11.776,0 12,0.224 12,0.5C12,0.776 11.776,1 11.5,1L0.5,1C0.224,1 0,0.776 0,0.5Z" style="fill:rgb(199,125,85);fill-rule:nonzero;"/>
    </g>
    <g transform="matrix(2,0,0,2,2.5,4)">
        <path d="M0,1C0,0.448 0.448,0 1,0L10,0C10.552,0 11,0.448 11,1L11,6C11,8.209 9.209,10 7,10L4,10C1.791,10 0,8.209 0,6L0,1Z" style="fill:rgb(69,50,43);fill-rule:nonzero;"/>
    </g>
    <g transform="matrix(2,0,0,2,2.5,4)">
        <clipPath id="_clip1">
            <path d="M0,1C0,0.448 0.448,0 1,0L10,0C10.552,0 11,0.448 11,1L11,6C11,8.209 9.209,10 7,10L4,10C1.791,10 0,8.209 0,6L0,1Z"/>
        </clipPath>
        <g clip-path="url(#_clip1)">
            <path d="M1,1L10,1L10,-1L1,-1L1,1ZM10,1L10,6L12,6L12,1L10,1ZM7,9L4,9L4,11L7,11L7,9ZM1,6L1,1L-1,1L-1,6L1,6ZM4,9C2.343,9 1,7.657 1,6L-1,6C-1,8.761 1.239,11 4,11L4,9ZM10,6C10,7.657 8.657,9 7,9L7,11C9.761,11 12,8.761 12,6L10,6ZM10,1L12,1C12,-0.105 11.105,-1 10,-1L10,1ZM1,-1C-0.105,-1 -1,-0.105 -1,1L1,1L1,-1Z" style="fill:rgb(199,125,85);fill-rule:nonzero;"/>
        </g>
    </g>
    <g transform="matrix(2,0,0,2,22.5,5.03308)">
        <clipPath id="_clip2">
            <path d="M0,-0.517L2.5,-0.517C3.052,-0.517 3.5,-0.069 3.5,0.483L3.5,1.665C3.5,2.465 3.023,3.188 2.288,3.503L0,4.483L0,-0.517Z"/>
        </clipPath>
        <g clip-path="url(#_clip2)">
            <path d="M0,-0.517L0,-1.517L-1,-1.517L-1,-0.517L0,-0.517ZM0,4.483L-1,4.483L-1,6L0.394,5.403L0,4.483ZM0,0.483L2.5,0.483L2.5,-1.517L0,-1.517L0,0.483ZM2.5,0.483L2.5,1.665L4.5,1.665L4.5,0.483L2.5,0.483ZM1.894,2.584L-0.394,3.564L0.394,5.403L2.682,4.422L1.894,2.584ZM1,4.483L1,-0.517L-1,-0.517L-1,4.483L1,4.483ZM2.5,1.665C2.5,2.065 2.262,2.426 1.894,2.584L2.682,4.422C3.785,3.949 4.5,2.865 4.5,1.665L2.5,1.665ZM2.5,0.483L4.5,0.483C4.5,-0.621 3.605,-1.517 2.5,-1.517L2.5,0.483Z" style="fill:rgb(199,125,85);fill-rule:nonzero;"/>
        </g>
    </g>
</svg>
