<?xml version="1.0" encoding="UTF-8" standalone="no"?>
<!DOCTYPE svg PUBLIC "-//W3C//DTD SVG 1.1//EN" "http://www.w3.org/Graphics/SVG/1.1/DTD/svg11.dtd">
<svg width="100%" height="100%" viewBox="0 0 32 32" version="1.1" xmlns="http://www.w3.org/2000/svg" xmlns:xlink="http://www.w3.org/1999/xlink" xml:space="preserve" xmlns:serif="http://www.serif.com/" style="fill-rule:evenodd;clip-rule:evenodd;stroke-linejoin:round;stroke-miterlimit:2;">
    <g transform="matrix(2,0,0,2,4,4)">
        <path d="M12,2C12,0.895 11.105,0 10,0L2,0C0.895,0 0,0.895 0,2L0,10C0,11.105 0.895,12 2,12L10,12C11.105,12 12,11.105 12,10L12,2Z" style="fill:rgb(242,197,92);fill-rule:nonzero;"/>
    </g>
    <g transform="matrix(2,0,0,2,8.42578,12.1752)">
        <path d="M0,4.912L1.009,4.912C1.163,4.912 1.298,4.881 1.415,4.818C1.535,4.753 1.626,4.662 1.689,4.545C1.754,4.425 1.787,4.288 1.787,4.134L1.787,-0.088L2.787,-0.088L2.787,4.271C2.787,4.593 2.716,4.878 2.574,5.126C2.431,5.374 2.233,5.568 1.979,5.707C1.726,5.844 1.435,5.912 1.107,5.912L0,5.912L0,4.912Z" style="fill:rgb(30,31,34);fill-rule:nonzero;"/>
    </g>
    <g transform="matrix(2,0,0,2,8.42578,11.8249)">
        <path d="M5.893,6.19C5.468,6.19 5.092,6.113 4.764,5.959C4.436,5.803 4.18,5.586 3.995,5.31C3.809,5.03 3.715,4.711 3.712,4.352L4.726,4.352C4.726,4.54 4.775,4.708 4.875,4.856C4.975,5.005 5.113,5.12 5.29,5.203C5.469,5.282 5.675,5.322 5.906,5.322C6.131,5.322 6.329,5.285 6.5,5.211C6.671,5.137 6.802,5.033 6.893,4.899C6.987,4.762 7.034,4.606 7.034,4.429C7.034,4.207 6.967,4.016 6.833,3.856C6.699,3.694 6.521,3.594 6.299,3.557L5.286,3.386C4.995,3.334 4.743,3.232 4.529,3.078C4.315,2.924 4.15,2.732 4.033,2.501C3.919,2.267 3.862,2.012 3.862,1.736C3.862,1.405 3.948,1.109 4.119,0.846C4.292,0.581 4.533,0.375 4.841,0.227C5.149,0.076 5.497,-0 5.884,-0C6.28,-0 6.632,0.073 6.94,0.218C7.251,0.363 7.493,0.566 7.667,0.825C7.841,1.084 7.929,1.381 7.932,1.714L6.919,1.714C6.919,1.552 6.876,1.406 6.79,1.278C6.705,1.147 6.585,1.046 6.431,0.975C6.277,0.903 6.099,0.868 5.897,0.868C5.695,0.868 5.516,0.902 5.363,0.97C5.209,1.039 5.089,1.136 5.003,1.261C4.918,1.387 4.875,1.532 4.875,1.697C4.875,1.891 4.938,2.059 5.063,2.202C5.189,2.341 5.353,2.428 5.555,2.462L6.551,2.625C6.845,2.676 7.105,2.786 7.333,2.954C7.564,3.122 7.742,3.332 7.868,3.582C7.993,3.833 8.056,4.1 8.056,4.382C8.056,4.724 7.965,5.033 7.782,5.31C7.6,5.583 7.345,5.798 7.017,5.955C6.689,6.112 6.314,6.19 5.893,6.19Z" style="fill:rgb(30,31,34);fill-rule:nonzero;"/>
    </g>
</svg>
