<?xml version="1.0" encoding="UTF-8" standalone="no"?>
<!DOCTYPE svg PUBLIC "-//W3C//DTD SVG 1.1//EN" "http://www.w3.org/Graphics/SVG/1.1/DTD/svg11.dtd">
<svg width="100%" height="100%" viewBox="0 0 32 32" version="1.1" xmlns="http://www.w3.org/2000/svg" xmlns:xlink="http://www.w3.org/1999/xlink" xml:space="preserve" xmlns:serif="http://www.serif.com/" style="fill-rule:evenodd;clip-rule:evenodd;stroke-linejoin:round;stroke-miterlimit:2;">
    <g transform="matrix(2,0,0,2,5.28334,5)">
        <path d="M10.553,10.131C10.889,10.44 10.671,11 10.215,11L0.5,11C0.224,11 0,10.776 0,10.5L0,0.5C0,0.224 0.224,0 0.5,0L10.215,0C10.671,0 10.889,0.56 10.553,0.869L5.902,5.131C5.686,5.33 5.686,5.67 5.902,5.869L10.553,10.131Z" style="fill:rgb(47,41,54);fill-rule:nonzero;"/>
    </g>
    <g transform="matrix(2,0,0,2,5.28334,3)">
        <path d="M5.902,6.131L6.24,6.5L5.902,6.131ZM5.902,6.869L6.24,6.5L5.902,6.869ZM10.215,11.5L0.5,11.5L0.5,12.5L10.215,12.5L10.215,11.5ZM0.5,11.5L0.5,1.5L-0.5,1.5L-0.5,11.5L0.5,11.5ZM0.5,1.5L10.215,1.5L10.215,0.5L0.5,0.5L0.5,1.5ZM10.215,1.5L5.564,5.763L6.24,6.5L10.89,2.237L10.215,1.5ZM5.564,7.237L10.215,11.5L10.89,10.763L6.24,6.5L5.564,7.237ZM5.564,5.763C5.132,6.159 5.132,6.841 5.564,7.237L6.24,6.5L5.564,5.763ZM10.215,1.5C10.215,1.5 10.89,2.237 10.89,2.237C11.563,1.621 11.127,0.5 10.215,0.5L10.215,1.5ZM0.5,1.5L0.5,0.5C-0.052,0.5 -0.5,0.948 -0.5,1.5L0.5,1.5ZM0.5,11.5L-0.5,11.5C-0.5,12.052 -0.052,12.5 0.5,12.5L0.5,11.5ZM10.215,12.5C11.127,12.5 11.563,11.379 10.89,10.763L10.215,11.5L10.215,12.5Z" style="fill:rgb(149,90,224);fill-rule:nonzero;"/>
    </g>
</svg>
