<?xml version="1.0" encoding="UTF-8" standalone="no"?>
<!DOCTYPE svg PUBLIC "-//W3C//DTD SVG 1.1//EN" "http://www.w3.org/Graphics/SVG/1.1/DTD/svg11.dtd">
<svg width="100%" height="100%" viewBox="0 0 32 32" version="1.1" xmlns="http://www.w3.org/2000/svg" xmlns:xlink="http://www.w3.org/1999/xlink" xml:space="preserve" xmlns:serif="http://www.serif.com/" style="fill-rule:evenodd;clip-rule:evenodd;stroke-linejoin:round;stroke-miterlimit:2;">
    <g transform="matrix(2,0,0,2,4,4)">
        <path d="M1.988,7.778C1.998,7.393 1.87,7.085 1.605,6.855C1.34,6.625 0.983,6.51 0.533,6.51L0,6.51L0,5.43L0.533,5.43C0.983,5.43 1.34,5.315 1.605,5.085C1.87,4.855 1.998,4.548 1.988,4.163L1.958,2.58C1.948,2.06 2.055,1.605 2.28,1.215C2.51,0.825 2.838,0.525 3.263,0.315C3.688,0.105 4.188,0 4.763,0L5.5,0L5.5,1.005L4.77,1.005C4.25,1.005 3.838,1.15 3.533,1.44C3.233,1.725 3.085,2.112 3.09,2.602L3.12,4.17C3.13,4.68 2.993,5.098 2.708,5.423C2.423,5.743 2.038,5.92 1.553,5.955C2.038,6.045 2.423,6.255 2.708,6.585C2.993,6.91 3.13,7.305 3.12,7.77L3.09,9.548C3.08,9.988 3.213,10.338 3.488,10.598C3.768,10.863 4.145,10.995 4.62,10.995L5.5,10.995L5.5,12L4.613,12C4.078,12 3.608,11.9 3.203,11.7C2.803,11.505 2.493,11.223 2.273,10.852C2.058,10.488 1.953,10.06 1.958,9.57L1.988,7.778Z" style="fill:rgb(84,138,247);fill-rule:nonzero;"/>
    </g>
    <g transform="matrix(2,0,0,2,4,4)">
        <path d="M10.015,7.778C10.005,7.393 10.132,7.085 10.397,6.855C10.662,6.625 11.02,6.51 11.47,6.51L12,6.51L12,5.43L11.47,5.43C11.02,5.43 10.662,5.315 10.397,5.085C10.132,4.855 10.005,4.548 10.015,4.163L10.045,2.58C10.055,2.06 9.945,1.605 9.715,1.215C9.49,0.825 9.165,0.525 8.74,0.315C8.315,0.105 7.815,0 7.24,0L6.5,0L6.5,1.005L7.232,1.005C7.752,1.005 8.162,1.15 8.462,1.44C8.767,1.725 8.917,2.112 8.912,2.602L8.882,4.17C8.872,4.68 9.01,5.098 9.295,5.423C9.58,5.743 9.965,5.92 10.45,5.955C9.965,6.045 9.58,6.255 9.295,6.585C9.01,6.91 8.872,7.305 8.882,7.77L8.912,9.548C8.922,9.988 8.787,10.338 8.507,10.598C8.232,10.863 7.857,10.995 7.382,10.995L6.5,10.995L6.5,12L7.39,12C7.925,12 8.392,11.9 8.792,11.7C9.197,11.505 9.507,11.223 9.722,10.852C9.942,10.488 10.05,10.06 10.045,9.57L10.015,7.778Z" style="fill:rgb(84,138,247);fill-rule:nonzero;"/>
    </g>
</svg>
