<?xml version="1.0" encoding="UTF-8" standalone="no"?>
<!DOCTYPE svg PUBLIC "-//W3C//DTD SVG 1.1//EN" "http://www.w3.org/Graphics/SVG/1.1/DTD/svg11.dtd">
<svg width="100%" height="100%" viewBox="0 0 32 32" version="1.1" xmlns="http://www.w3.org/2000/svg" xmlns:xlink="http://www.w3.org/1999/xlink" xml:space="preserve" xmlns:serif="http://www.serif.com/" style="fill-rule:evenodd;clip-rule:evenodd;stroke-linejoin:round;stroke-miterlimit:2;">
    <g transform="matrix(2,0,0,2,1.31055,5.79066)">
        <path d="M12.506,0.128C14.568,0.128 14.926,1.862 14.568,3.425L13.24,9.438C13.145,9.871 12.699,10.147 12.245,10.057C11.791,9.966 11.501,9.541 11.596,9.109L12.847,3.425C13.418,0.947 10.183,1.253 8.87,3.093L7.455,9.443C7.359,9.875 6.914,10.152 6.46,10.061C6.441,10.057 6.423,10.053 6.405,10.048C5.972,9.942 5.7,9.529 5.793,9.109L7.049,3.421C7.311,2.302 6.774,1.752 5.994,1.656C5.066,1.556 3.794,2.102 3.085,3.097L3.084,3.091L3.082,3.093L1.662,9.449C1.565,9.881 1.119,10.157 0.666,10.065C0.212,9.973 -0.078,9.548 0.019,9.116L1.847,0.925C1.943,0.493 2.389,0.217 2.843,0.309C3.359,0.413 3.571,0.886 3.472,1.34C4.421,0.592 5.528,0.063 6.792,0.133C8.027,0.158 8.631,0.821 8.828,1.689C9.967,0.716 10.929,0.128 12.506,0.128Z" style="fill:rgb(84,138,247);fill-rule:nonzero;"/>
    </g>
</svg>
