<?xml version="1.0" encoding="UTF-8" standalone="no"?>
<!DOCTYPE svg PUBLIC "-//W3C//DTD SVG 1.1//EN" "http://www.w3.org/Graphics/SVG/1.1/DTD/svg11.dtd">
<svg width="100%" height="100%" viewBox="0 0 32 32" version="1.1" xmlns="http://www.w3.org/2000/svg" xmlns:xlink="http://www.w3.org/1999/xlink" xml:space="preserve" xmlns:serif="http://www.serif.com/" style="fill-rule:evenodd;clip-rule:evenodd;stroke-linejoin:round;stroke-miterlimit:2;">
    <g transform="matrix(2,0,0,2,0.000575674,11.3428)">
        <path d="M1.266,0L3.639,0C4.335,0.006 4.84,0.207 5.153,0.602C5.466,0.998 5.569,1.538 5.463,2.222C5.422,2.535 5.33,2.842 5.188,3.143C5.053,3.444 4.864,3.716 4.622,3.958C4.327,4.265 4.011,4.459 3.674,4.542C3.338,4.625 2.99,4.666 2.63,4.666L1.567,4.666L1.231,6.348L0,6.348L1.266,0ZM2.302,1.009L1.771,3.666C1.806,3.671 1.842,3.674 1.877,3.674L2.001,3.674C2.568,3.68 3.04,3.624 3.418,3.506C3.795,3.382 4.049,2.951 4.179,2.214C4.285,1.594 4.179,1.237 3.86,1.142C3.547,1.048 3.155,1.004 2.683,1.009C2.612,1.015 2.544,1.018 2.479,1.018L2.293,1.018L2.302,1.009Z" style="fill:rgb(84,138,247);fill-rule:nonzero;"/>
    </g>
    <g transform="matrix(2,0,0,2,11.1803,7.96057)">
        <path d="M1.275,0L2.497,0L2.152,1.691L3.249,1.691C3.851,1.703 4.3,1.827 4.595,2.063C4.896,2.299 4.985,2.748 4.861,3.409L4.268,6.357L3.028,6.357L3.595,3.542C3.654,3.246 3.636,3.037 3.542,2.913C3.447,2.789 3.244,2.727 2.931,2.727L1.948,2.718L1.222,6.357L0,6.357L1.275,0Z" style="fill:rgb(84,138,247);fill-rule:nonzero;"/>
    </g>
    <g transform="matrix(2,0,0,2,20.9928,11.3428)">
        <path d="M1.266,0L3.639,0C4.335,0.006 4.84,0.207 5.153,0.602C5.466,0.998 5.569,1.538 5.463,2.222C5.422,2.535 5.33,2.842 5.188,3.143C5.053,3.444 4.864,3.716 4.622,3.958C4.327,4.265 4.011,4.459 3.674,4.542C3.338,4.625 2.99,4.666 2.63,4.666L1.567,4.666L1.231,6.348L0,6.348L1.266,0ZM2.302,1.009L1.771,3.666C1.806,3.671 1.842,3.674 1.877,3.674L2.001,3.674C2.568,3.68 3.04,3.624 3.418,3.506C3.795,3.382 4.049,2.951 4.179,2.214C4.285,1.594 4.179,1.237 3.86,1.142C3.547,1.048 3.155,1.004 2.683,1.009C2.612,1.015 2.544,1.018 2.479,1.018L2.293,1.018L2.302,1.009Z" style="fill:rgb(84,138,247);fill-rule:nonzero;"/>
    </g>
</svg>
