<?xml version="1.0" encoding="UTF-8" standalone="no"?>
<!DOCTYPE svg PUBLIC "-//W3C//DTD SVG 1.1//EN" "http://www.w3.org/Graphics/SVG/1.1/DTD/svg11.dtd">
<svg width="100%" height="100%" viewBox="0 0 32 32" version="1.1" xmlns="http://www.w3.org/2000/svg" xmlns:xlink="http://www.w3.org/1999/xlink" xml:space="preserve" xmlns:serif="http://www.serif.com/" style="fill-rule:evenodd;clip-rule:evenodd;stroke-linejoin:round;stroke-miterlimit:2;">
    <g transform="matrix(1.99999,0,0,1.99999,1.00043e-05,1.22462e-05)">
        <path d="M7.917,1C7.339,1.003 6.788,1.051 6.303,1.136C4.874,1.386 4.615,1.909 4.615,2.873L4.615,4.145L7.991,4.145L7.991,4.57L3.347,4.57C2.366,4.57 1.507,5.153 1.238,6.263C0.928,7.535 0.914,8.329 1.238,9.658C1.478,10.646 2.051,11.351 3.032,11.351L4.193,11.351L4.193,9.825C4.193,8.723 5.158,7.75 6.303,7.75L9.676,7.75C10.615,7.75 11.364,6.985 11.364,6.053L11.364,2.873C11.364,1.967 10.592,1.287 9.676,1.136C9.096,1.041 8.494,0.997 7.917,1ZM6.091,2.024C6.439,2.024 6.724,2.31 6.724,2.662C6.724,3.013 6.439,3.297 6.091,3.297C5.74,3.297 5.457,3.013 5.457,2.662C5.457,2.31 5.74,2.024 6.091,2.024Z" style="fill:url(#_Linear1);fill-rule:nonzero;"/>
    </g>
    <g transform="matrix(1.99999,0,0,1.99999,1.00043e-05,1.22462e-05)">
        <path d="M11.785,4.57L11.785,6.053C11.785,7.203 10.8,8.17 9.676,8.17L6.303,8.17C5.379,8.17 4.614,8.953 4.614,9.868L4.614,13.048C4.614,13.953 5.41,14.486 6.303,14.745C7.372,15.056 8.397,15.112 9.676,14.745C10.526,14.502 11.364,14.012 11.364,13.048L11.364,11.775L7.991,11.775L7.991,11.351L13.053,11.351C14.034,11.351 14.4,10.674 14.741,9.658C15.094,8.611 15.079,7.605 14.741,6.263C14.499,5.297 14.035,4.57 13.053,4.57L11.785,4.57ZM9.888,12.624C10.239,12.624 10.522,12.908 10.522,13.258C10.522,13.61 10.239,13.897 9.888,13.897C9.54,13.897 9.255,13.61 9.255,13.258C9.255,12.908 9.54,12.624 9.888,12.624Z" style="fill:url(#_Linear2);fill-rule:nonzero;"/>
    </g>
    <defs>
        <linearGradient id="_Linear1" x1="0" y1="0" x2="1" y2="0" gradientUnits="userSpaceOnUse" gradientTransform="matrix(7.71457,6.64655,-6.64655,7.71457,1,1)"><stop offset="0" style="stop-color:rgb(90,159,212);stop-opacity:1"/><stop offset="1" style="stop-color:rgb(48,105,152);stop-opacity:1"/></linearGradient>
        <linearGradient id="_Linear2" x1="0" y1="0" x2="1" y2="0" gradientUnits="userSpaceOnUse" gradientTransform="matrix(-2.75303,-3.9005,3.9005,-2.75303,9.80726,13.1513)"><stop offset="0" style="stop-color:rgb(244,194,14);stop-opacity:1"/><stop offset="1" style="stop-color:rgb(251,220,62);stop-opacity:1"/></linearGradient>
    </defs>
</svg>
