<?xml version="1.0" encoding="UTF-8" standalone="no"?>
<!DOCTYPE svg PUBLIC "-//W3C//DTD SVG 1.1//EN" "http://www.w3.org/Graphics/SVG/1.1/DTD/svg11.dtd">
<svg width="100%" height="100%" viewBox="0 0 32 32" version="1.1" xmlns="http://www.w3.org/2000/svg" xmlns:xlink="http://www.w3.org/1999/xlink" xml:space="preserve" xmlns:serif="http://www.serif.com/" style="fill-rule:evenodd;clip-rule:evenodd;stroke-linejoin:round;stroke-miterlimit:2;">
    <g transform="matrix(2,0,0,2,5,2.96288)">
        <path d="M5.5,0C2.462,0 0,0.941 0,2.103L0,10.934C0,12.096 2.462,13.037 5.5,13.037C8.538,13.037 11,12.096 11,10.934L11,2.103C11,0.941 8.538,0 5.5,0Z" style="fill:rgb(47,41,54);fill-rule:nonzero;"/>
    </g>
    <g transform="matrix(2,0,0,2,5,0.962876)">
        <path d="M10.5,3.103C10.5,3.203 10.449,3.355 10.233,3.55C10.016,3.746 9.675,3.945 9.211,4.123C8.285,4.476 6.974,4.706 5.5,4.706L5.5,5.706C7.064,5.706 8.502,5.464 9.568,5.057C10.099,4.854 10.563,4.6 10.903,4.292C11.243,3.985 11.5,3.584 11.5,3.103L10.5,3.103ZM5.5,4.706C4.026,4.706 2.715,4.476 1.789,4.123C1.325,3.945 0.984,3.746 0.767,3.55C0.551,3.355 0.5,3.203 0.5,3.103L-0.5,3.103C-0.5,3.584 -0.243,3.985 0.097,4.292C0.437,4.6 0.901,4.854 1.432,5.057C2.498,5.464 3.936,5.706 5.5,5.706L5.5,4.706ZM0.5,3.103C0.5,3.003 0.551,2.851 0.767,2.655C0.984,2.46 1.325,2.26 1.789,2.083C2.715,1.729 4.026,1.5 5.5,1.5L5.5,0.5C3.936,0.5 2.498,0.741 1.432,1.149C0.901,1.352 0.437,1.606 0.097,1.913C-0.243,2.221 -0.5,2.622 -0.5,3.103L0.5,3.103ZM5.5,1.5C6.974,1.5 8.285,1.729 9.211,2.083C9.675,2.26 10.016,2.46 10.233,2.655C10.449,2.851 10.5,3.003 10.5,3.103L11.5,3.103C11.5,2.622 11.243,2.221 10.903,1.913C10.563,1.606 10.099,1.352 9.568,1.149C8.502,0.741 7.064,0.5 5.5,0.5L5.5,1.5Z" style="fill:rgb(181,137,236);fill-rule:nonzero;"/>
    </g>
    <g transform="matrix(2,0,0,2,5,24.8316)">
        <path d="M10.5,0C10.5,0.1 10.449,0.252 10.233,0.448C10.016,0.643 9.675,0.842 9.211,1.02C8.285,1.374 6.974,1.603 5.5,1.603L5.5,2.603C7.064,2.603 8.502,2.361 9.568,1.954C10.099,1.751 10.563,1.497 10.903,1.189C11.243,0.882 11.5,0.481 11.5,0L10.5,0ZM5.5,1.603C4.026,1.603 2.715,1.374 1.789,1.02C1.325,0.842 0.984,0.643 0.767,0.448C0.551,0.252 0.5,0.1 0.5,0L-0.5,0C-0.5,0.481 -0.243,0.882 0.097,1.189C0.437,1.497 0.901,1.751 1.432,1.954C2.498,2.361 3.936,2.603 5.5,2.603L5.5,1.603Z" style="fill:rgb(181,137,236);fill-rule:nonzero;"/>
    </g>
    <g transform="matrix(2,0,0,2,5,18.9439)">
        <path d="M10.5,0C10.5,0.1 10.449,0.252 10.233,0.448C10.016,0.643 9.675,0.842 9.211,1.02C8.285,1.374 6.974,1.603 5.5,1.603L5.5,2.603C7.064,2.603 8.502,2.361 9.568,1.954C10.099,1.751 10.563,1.497 10.903,1.189C11.243,0.882 11.5,0.481 11.5,0L10.5,0ZM5.5,1.603C4.026,1.603 2.715,1.374 1.789,1.02C1.325,0.842 0.984,0.643 0.767,0.448C0.551,0.252 0.5,0.1 0.5,0L-0.5,0C-0.5,0.481 -0.243,0.882 0.097,1.189C0.437,1.497 0.901,1.751 1.432,1.954C2.498,2.361 3.936,2.603 5.5,2.603L5.5,1.603Z" style="fill:rgb(181,137,236);fill-rule:nonzero;"/>
    </g>
    <g transform="matrix(2,0,0,2,5,13.0562)">
        <path d="M10.5,0C10.5,0.1 10.449,0.252 10.233,0.448C10.016,0.643 9.675,0.842 9.211,1.02C8.285,1.374 6.974,1.603 5.5,1.603L5.5,2.603C7.064,2.603 8.502,2.361 9.568,1.954C10.099,1.751 10.563,1.497 10.903,1.189C11.243,0.882 11.5,0.481 11.5,0L10.5,0ZM5.5,1.603C4.026,1.603 2.715,1.374 1.789,1.02C1.325,0.842 0.984,0.643 0.767,0.448C0.551,0.252 0.5,0.1 0.5,0L-0.5,0C-0.5,0.481 -0.243,0.882 0.097,1.189C0.437,1.497 0.901,1.751 1.432,1.954C2.498,2.361 3.936,2.603 5.5,2.603L5.5,1.603Z" style="fill:rgb(181,137,236);fill-rule:nonzero;"/>
    </g>
    <g transform="matrix(0,2,2,0,17.8741,15.8737)">
        <rect x="-4.563" y="4.063" width="9.126" height="1" style="fill:rgb(181,137,236);"/>
    </g>
    <g transform="matrix(0,2,2,0,-4.1259,15.8737)">
        <rect x="-4.563" y="4.063" width="9.126" height="1" style="fill:rgb(181,137,236);"/>
    </g>
</svg>
