<?xml version="1.0" encoding="UTF-8" standalone="no"?>
<!DOCTYPE svg PUBLIC "-//W3C//DTD SVG 1.1//EN" "http://www.w3.org/Graphics/SVG/1.1/DTD/svg11.dtd">
<svg width="100%" height="100%" viewBox="0 0 32 32" version="1.1" xmlns="http://www.w3.org/2000/svg" xmlns:xlink="http://www.w3.org/1999/xlink" xml:space="preserve" xmlns:serif="http://www.serif.com/" style="fill-rule:evenodd;clip-rule:evenodd;stroke-linejoin:round;stroke-miterlimit:2;">
    <g transform="matrix(2,0,0,2,4,24)">
        <path d="M0,0.5C0,0.224 0.224,0 0.5,0L7.5,0C7.776,0 8,0.224 8,0.5C8,0.776 7.776,1 7.5,1L0.5,1C0.224,1 0,0.776 0,0.5Z" style="fill:rgb(206,208,214);fill-rule:nonzero;"/>
    </g>
    <g transform="matrix(2,0,0,2,4,12)">
        <path d="M0,0.5C0,0.224 0.224,0 0.5,0L7.5,0C7.776,0 8,0.224 8,0.5C8,0.776 7.776,1 7.5,1L0.5,1C0.224,1 0,0.776 0,0.5Z" style="fill:rgb(206,208,214);fill-rule:nonzero;"/>
    </g>
    <g transform="matrix(2,0,0,2,4,18)">
        <path d="M0,0.5C0,0.224 0.224,0 0.5,0L11.5,0C11.776,0 12,0.224 12,0.5C12,0.776 11.776,1 11.5,1L0.5,1C0.224,1 0,0.776 0,0.5Z" style="fill:rgb(206,208,214);fill-rule:nonzero;"/>
    </g>
    <g transform="matrix(2,0,0,2,4,6)">
        <path d="M0,0.5C0,0.224 0.224,0 0.5,0L11.5,0C11.776,0 12,0.224 12,0.5C12,0.776 11.776,1 11.5,1L0.5,1C0.224,1 0,0.776 0,0.5Z" style="fill:rgb(206,208,214);fill-rule:nonzero;"/>
    </g>
</svg>
