<svg width="16" height="16" viewBox="0 0 16 16" fill="none" xmlns="http://www.w3.org/2000/svg">
<path d="M14 4C14 2.89543 13.1046 2 12 2H4C2.89543 2 2 2.89543 2 4V12C2 13.1046 2.89543 14 4 14H12C13.1046 14 14 13.1046 14 12V4Z" fill="#3574F0"/>
<path d="M3.13477 6.00035H7.87147V7.00035H5.99976V12.0004H4.99976V7.00035H3.13477V6.00035Z" fill="white"/>
<path d="M10.6831 12.0906C10.2585 12.0906 9.88225 12.0136 9.5545 11.8597C9.22675 11.703 8.97025 11.4864 8.785 11.2099C8.59975 10.9306 8.5057 10.6114 8.50285 10.2523H9.51603C9.51603 10.4404 9.5659 10.6086 9.66565 10.7568C9.7654 10.905 9.90363 11.0204 10.0803 11.1031C10.2599 11.1829 10.4651 11.2228 10.6959 11.2228C10.9211 11.2228 11.1192 11.1857 11.2902 11.1116C11.4612 11.0375 11.5923 10.9335 11.6835 10.7995C11.7775 10.6627 11.8245 10.506 11.8245 10.3293C11.8245 10.107 11.7576 9.91604 11.6236 9.75644C11.4897 9.59399 11.3115 9.49424 11.0892 9.45719L10.0761 9.28619C9.78535 9.23489 9.53313 9.13229 9.31938 8.97839C9.10563 8.82449 8.94033 8.63212 8.82348 8.40127C8.70948 8.16757 8.65248 7.91249 8.65248 7.63604C8.65248 7.30544 8.73798 7.00904 8.90898 6.74684C9.08283 6.48179 9.32365 6.27517 9.63145 6.12697C9.93925 5.97592 10.287 5.90039 10.6746 5.90039C11.0707 5.90039 11.4227 5.97307 11.7305 6.11842C12.0411 6.26377 12.2834 6.46612 12.4572 6.72547C12.6311 6.98482 12.7194 7.28122 12.7223 7.61467H11.7091C11.7091 7.45222 11.6664 7.30687 11.5809 7.17862C11.4954 7.04752 11.3757 6.94634 11.2218 6.87509C11.0679 6.80384 10.8897 6.76822 10.6874 6.76822C10.485 6.76822 10.3069 6.80242 10.153 6.87082C9.9991 6.93922 9.8794 7.03612 9.7939 7.16152C9.7084 7.28692 9.66565 7.43227 9.66565 7.59757C9.66565 7.79137 9.72835 7.95952 9.85375 8.10202C9.97915 8.24167 10.143 8.32859 10.3454 8.36279L11.3415 8.52524C11.635 8.57654 11.8958 8.68627 12.1238 8.85442C12.3546 9.02257 12.5328 9.23204 12.6582 9.48284C12.7836 9.73364 12.8463 10.0001 12.8463 10.2823C12.8463 10.6243 12.7551 10.9335 12.5727 11.2099C12.3903 11.4835 12.1352 11.6987 11.8074 11.8555C11.4797 12.0122 11.1049 12.0906 10.6831 12.0906Z" fill="white"/>
</svg>
