<?xml version="1.0" encoding="UTF-8" standalone="no"?>
<!DOCTYPE svg PUBLIC "-//W3C//DTD SVG 1.1//EN" "http://www.w3.org/Graphics/SVG/1.1/DTD/svg11.dtd">
<svg width="100%" height="100%" viewBox="0 0 32 32" version="1.1" xmlns="http://www.w3.org/2000/svg" xmlns:xlink="http://www.w3.org/1999/xlink" xml:space="preserve" xmlns:serif="http://www.serif.com/" style="fill-rule:evenodd;clip-rule:evenodd;stroke-linejoin:round;stroke-miterlimit:2;">
    <g transform="matrix(2,0,0,2,4,4)">
        <path d="M12,2C12,0.895 11.105,0 10,0L2,0C0.895,0 0,0.895 0,2L0,10C0,11.105 0.895,12 2,12L10,12C11.105,12 12,11.105 12,10L12,2Z" style="fill:rgb(84,138,247);fill-rule:nonzero;"/>
    </g>
    <g transform="matrix(2,0,0,2,6.27002,12.1752)">
        <path d="M0,-0.088L4.737,-0.088L4.737,0.912L2.865,0.912L2.865,5.912L1.865,5.912L1.865,0.912L0,0.912L0,-0.088Z" style="fill:white;fill-rule:nonzero;"/>
    </g>
    <g transform="matrix(2,0,0,2,6.27002,11.8249)">
        <path d="M7.549,6.19C7.124,6.19 6.748,6.113 6.42,5.959C6.092,5.803 5.836,5.586 5.65,5.31C5.465,5.03 5.371,4.711 5.368,4.352L6.382,4.352C6.382,4.54 6.431,4.708 6.531,4.856C6.631,5.005 6.769,5.12 6.946,5.203C7.125,5.282 7.331,5.322 7.561,5.322C7.787,5.322 7.985,5.285 8.156,5.211C8.327,5.137 8.458,5.033 8.549,4.899C8.643,4.762 8.69,4.606 8.69,4.429C8.69,4.207 8.623,4.016 8.489,3.856C8.355,3.694 8.177,3.594 7.955,3.557L6.942,3.386C6.651,3.334 6.399,3.232 6.185,3.078C5.971,2.924 5.806,2.732 5.689,2.501C5.575,2.267 5.518,2.012 5.518,1.736C5.518,1.405 5.603,1.109 5.774,0.846C5.948,0.581 6.189,0.375 6.497,0.227C6.805,0.076 7.152,-0 7.54,-0C7.936,-0 8.288,0.073 8.596,0.218C8.907,0.363 9.149,0.566 9.323,0.825C9.497,1.084 9.585,1.381 9.588,1.714L8.575,1.714C8.575,1.552 8.532,1.406 8.446,1.278C8.361,1.147 8.241,1.046 8.087,0.975C7.933,0.903 7.755,0.868 7.553,0.868C7.351,0.868 7.172,0.902 7.018,0.97C6.865,1.039 6.745,1.136 6.659,1.261C6.574,1.387 6.531,1.532 6.531,1.697C6.531,1.891 6.594,2.059 6.719,2.202C6.845,2.341 7.009,2.428 7.211,2.462L8.207,2.625C8.5,2.676 8.761,2.786 8.989,2.954C9.22,3.122 9.398,3.332 9.524,3.582C9.649,3.833 9.712,4.1 9.712,4.382C9.712,4.724 9.621,5.033 9.438,5.31C9.256,5.583 9.001,5.798 8.673,5.955C8.345,6.112 7.97,6.19 7.549,6.19Z" style="fill:white;fill-rule:nonzero;"/>
    </g>
</svg>
