<?xml version="1.0" encoding="UTF-8" standalone="no"?>
<!DOCTYPE svg PUBLIC "-//W3C//DTD SVG 1.1//EN" "http://www.w3.org/Graphics/SVG/1.1/DTD/svg11.dtd">
<svg width="100%" height="100%" viewBox="0 0 32 32" version="1.1" xmlns="http://www.w3.org/2000/svg" xmlns:xlink="http://www.w3.org/1999/xlink" xml:space="preserve" xmlns:serif="http://www.serif.com/" style="fill-rule:evenodd;clip-rule:evenodd;stroke-linejoin:round;stroke-miterlimit:2;">
    <g transform="matrix(2,0,0,2,0.079082,3.09584)">
        <path d="M10.038,0.892C10.126,0.573 9.939,0.243 9.619,0.154C9.3,0.066 8.969,0.254 8.881,0.573L5.726,12.012C5.638,12.331 5.825,12.662 6.145,12.75C6.464,12.838 6.794,12.65 6.883,12.331L10.038,0.892ZM5.373,3.119C5.58,3.378 5.538,3.755 5.28,3.962L1.921,6.649L5.28,9.336C5.538,9.543 5.58,9.921 5.373,10.18C5.166,10.438 4.789,10.48 4.53,10.273L0.586,7.118L0,6.649L0.586,6.181L4.53,3.025C4.789,2.818 5.166,2.86 5.373,3.119ZM10.548,10.18C10.341,9.921 10.383,9.543 10.641,9.336L14,6.649L10.641,3.962C10.383,3.755 10.341,3.378 10.548,3.119C10.755,2.86 11.132,2.818 11.391,3.025L15.335,6.181L15.921,6.649L11.391,10.273C11.132,10.48 10.755,10.438 10.548,10.18Z" style="fill:rgb(199,125,85);"/>
    </g>
</svg>
